<?xml version="1.0" encoding="utf-8"?>
<svg version="1.1" viewBox="-1.756 0 660.317 95.436" fill="none" stroke="none" stroke-linecap="square" stroke-miterlimit="10" xmlns="http://www.w3.org/2000/svg">
  <clipPath id="p.0">
    <path d="m0 0l768.0 0l0 192.0l-768.0 0l0 -192.0z" clip-rule="nonzero"/>
  </clipPath>
  <g clip-path="url(#p.0)">
    <path fill="#000000" fill-opacity="0.0" d="M -62.074 -57.041 L 705.926 -57.041 L 705.926 134.959 L -62.074 134.959 L -62.074 -57.041 Z" fill-rule="evenodd"/>
    <path fill="#000000" fill-opacity="0.0" d="M -33.274 -37.841 L 225.938 -37.841 L 225.938 77.371 L -33.274 77.371 L -33.274 -37.841 Z" fill-rule="evenodd"/>
    <path fill="#2979ff" d="M 58.849 43.095 C 52.97 43.095 47.596 42.227 42.728 40.49 C 37.87 38.754 34.042 36.388 31.244 33.39 C 28.447 30.385 27.048 27.059 27.048 23.409 C 27.048 19.76 28.447 16.437 31.244 13.439 C 34.042 10.441 37.87 8.073 42.728 6.337 C 47.596 4.602 52.97 3.733 58.849 3.733 C 68.005 3.733 75.578 5.783 81.568 9.884 L 73.522 14.732 C 69.62 11.888 64.757 10.465 58.932 10.465 C 55.141 10.465 51.69 11.003 48.58 12.077 C 45.469 13.144 43.023 14.661 41.238 16.625 C 39.461 18.589 38.574 20.851 38.574 23.409 C 38.574 25.974 39.461 28.238 41.238 30.202 C 43.023 32.167 45.469 33.686 48.58 34.76 C 51.69 35.828 55.141 36.361 58.932 36.361 C 65.318 36.361 70.659 34.711 74.958 31.41 L 83.1 36.199 C 80.101 38.449 76.549 40.162 72.445 41.339 C 68.35 42.51 63.818 43.095 58.849 43.095 Z M 93.7 4.573 L 105.142 4.573 L 105.142 35.522 L 130.843 35.522 L 130.843 42.256 L 93.7 42.256 L 93.7 4.573 Z M 158.743 43.095 C 153.424 43.095 148.731 42.167 144.664 40.31 C 140.597 38.449 137.74 35.817 136.092 32.412 L 146.873 29.783 C 147.718 31.782 149.16 33.377 151.192 34.571 C 153.226 35.765 155.77 36.361 158.825 36.361 C 161.375 36.361 163.55 35.967 165.354 35.18 C 167.166 34.386 168.073 33.29 168.073 31.89 C 168.073 30.485 167.208 29.338 165.478 28.446 C 163.758 27.55 160.693 26.59 156.285 25.568 L 152.546 24.729 C 148.643 23.889 145.307 22.601 142.538 20.866 C 139.768 19.123 138.384 16.939 138.384 14.313 C 138.384 12.343 139.203 10.552 140.84 8.941 C 142.488 7.325 144.807 6.054 147.797 5.13 C 150.797 4.198 154.192 3.733 157.983 3.733 C 163.468 3.733 167.792 4.532 170.958 6.131 C 174.123 7.725 176.3 9.589 177.486 11.725 L 167.397 14.364 C 166.771 13.204 165.681 12.231 164.125 11.443 C 162.571 10.649 160.578 10.252 158.149 10.252 C 155.664 10.252 153.612 10.612 151.993 11.331 C 150.382 12.05 149.578 12.99 149.578 14.15 C 149.578 15.274 150.341 16.231 151.869 17.019 C 153.397 17.807 155.914 18.57 159.419 19.306 L 163.241 20.094 C 168.496 21.22 172.522 22.705 175.319 24.549 C 178.117 26.388 179.515 28.798 179.515 31.778 C 179.515 34.235 178.499 36.313 176.465 38.014 C 174.431 39.717 171.818 40.991 168.625 41.836 C 165.432 42.675 162.138 43.095 158.743 43.095 Z" fill-rule="nonzero" style=""/>
    <path fill="#0cce6b" d="M 297.926 0.559 L 413.138 0.559 L 413.138 43.771 L 297.926 43.771 L 297.926 0.559 Z" fill-rule="evenodd"/>
    <path fill="#000000" d="M 339.847 27.184 C 338.941 27.184 338.108 26.965 337.347 26.528 C 336.587 26.09 335.978 25.491 335.519 24.731 C 335.071 23.97 334.847 23.126 334.847 22.199 C 334.847 21.262 335.071 20.413 335.519 19.653 C 335.978 18.892 336.587 18.298 337.347 17.871 C 338.108 17.434 338.941 17.215 339.847 17.215 C 340.577 17.215 341.249 17.345 341.863 17.606 C 342.478 17.856 342.999 18.21 343.426 18.668 L 342.41 19.684 C 341.764 18.955 340.91 18.59 339.847 18.59 C 339.233 18.59 338.65 18.741 338.097 19.043 C 337.556 19.335 337.124 19.757 336.801 20.309 C 336.488 20.861 336.332 21.491 336.332 22.199 C 336.332 22.908 336.493 23.538 336.816 24.09 C 337.139 24.632 337.571 25.054 338.113 25.356 C 338.655 25.647 339.238 25.793 339.863 25.793 C 340.874 25.793 341.691 25.475 342.316 24.84 C 342.525 24.653 342.696 24.408 342.832 24.106 C 342.967 23.804 343.061 23.47 343.113 23.106 L 339.832 23.106 L 339.832 21.809 L 344.472 21.809 C 344.525 22.111 344.551 22.366 344.551 22.574 C 344.551 23.179 344.457 23.757 344.269 24.309 C 344.082 24.85 343.785 25.33 343.379 25.746 C 342.952 26.215 342.441 26.574 341.847 26.824 C 341.254 27.064 340.587 27.184 339.847 27.184 Z M 350.716 27.184 C 349.789 27.184 348.945 26.96 348.185 26.512 C 347.435 26.064 346.841 25.46 346.404 24.699 C 345.977 23.939 345.763 23.106 345.763 22.199 C 345.763 21.283 345.977 20.444 346.404 19.684 C 346.841 18.923 347.435 18.324 348.185 17.887 C 348.945 17.439 349.789 17.215 350.716 17.215 C 351.643 17.215 352.482 17.439 353.232 17.887 C 353.982 18.324 354.57 18.923 354.998 19.684 C 355.425 20.444 355.638 21.283 355.638 22.199 C 355.638 23.106 355.425 23.939 354.998 24.699 C 354.57 25.46 353.982 26.064 353.232 26.512 C 352.482 26.96 351.643 27.184 350.716 27.184 Z M 350.716 25.793 C 351.352 25.793 351.935 25.642 352.466 25.34 C 352.998 25.028 353.414 24.6 353.716 24.059 C 354.029 23.507 354.185 22.887 354.185 22.199 C 354.185 21.501 354.029 20.882 353.716 20.34 C 353.414 19.788 352.998 19.361 352.466 19.059 C 351.935 18.746 351.352 18.59 350.716 18.59 C 350.07 18.59 349.482 18.746 348.951 19.059 C 348.43 19.361 348.013 19.788 347.701 20.34 C 347.399 20.882 347.248 21.501 347.248 22.199 C 347.248 22.887 347.399 23.507 347.701 24.059 C 348.013 24.6 348.43 25.028 348.951 25.34 C 349.482 25.642 350.07 25.793 350.716 25.793 Z M 361.672 27.184 C 360.745 27.184 359.901 26.96 359.141 26.512 C 358.391 26.064 357.797 25.46 357.359 24.699 C 356.932 23.939 356.719 23.106 356.719 22.199 C 356.719 21.283 356.932 20.444 357.359 19.684 C 357.797 18.923 358.391 18.324 359.141 17.887 C 359.901 17.439 360.745 17.215 361.672 17.215 C 362.599 17.215 363.438 17.439 364.188 17.887 C 364.938 18.324 365.526 18.923 365.953 19.684 C 366.38 20.444 366.594 21.283 366.594 22.199 C 366.594 23.106 366.38 23.939 365.953 24.699 C 365.526 25.46 364.938 26.064 364.188 26.512 C 363.438 26.96 362.599 27.184 361.672 27.184 Z M 361.672 25.793 C 362.307 25.793 362.891 25.642 363.422 25.34 C 363.953 25.028 364.37 24.6 364.672 24.059 C 364.984 23.507 365.141 22.887 365.141 22.199 C 365.141 21.501 364.984 20.882 364.672 20.34 C 364.37 19.788 363.953 19.361 363.422 19.059 C 362.891 18.746 362.307 18.59 361.672 18.59 C 361.026 18.59 360.438 18.746 359.906 19.059 C 359.385 19.361 358.969 19.788 358.656 20.34 C 358.354 20.882 358.203 21.501 358.203 22.199 C 358.203 22.887 358.354 23.507 358.656 24.059 C 358.969 24.6 359.385 25.028 359.906 25.34 C 360.438 25.642 361.026 25.793 361.672 25.793 Z M 368.292 17.418 L 371.339 17.418 C 372.329 17.418 373.188 17.621 373.917 18.028 C 374.657 18.423 375.224 18.986 375.62 19.715 C 376.016 20.434 376.214 21.262 376.214 22.199 C 376.214 23.126 376.016 23.955 375.62 24.684 C 375.224 25.403 374.657 25.965 373.917 26.371 C 373.188 26.767 372.329 26.965 371.339 26.965 L 368.292 26.965 L 368.292 17.418 Z M 371.308 25.574 C 372.391 25.574 373.23 25.278 373.823 24.684 C 374.428 24.08 374.73 23.251 374.73 22.199 C 374.73 21.137 374.428 20.309 373.823 19.715 C 373.23 19.111 372.391 18.809 371.308 18.809 L 369.761 18.809 L 369.761 25.574 L 371.308 25.574 Z" fill-rule="nonzero"/>
    <path fill="#ffa400" d="M 413.126 0.559 L 537.913 0.559 L 537.913 43.772 L 413.126 43.772 L 413.126 0.559 Z" fill-rule="evenodd"/>
    <path fill="#000000" d="M 455.512 9.419 L 457.247 9.419 L 461.559 16.434 L 461.637 16.434 L 461.559 14.59 L 461.559 9.419 L 463.012 9.419 L 463.012 18.965 L 461.497 18.965 L 456.966 11.59 L 456.887 11.59 L 456.966 13.434 L 456.966 18.965 L 455.512 18.965 L 455.512 9.419 Z M 465.175 9.419 L 470.957 9.419 L 470.957 10.809 L 466.644 10.809 L 466.644 13.497 L 470.535 13.497 L 470.535 14.887 L 466.644 14.887 L 466.644 17.575 L 470.957 17.575 L 470.957 18.965 L 465.175 18.965 L 465.175 9.419 Z M 472.799 9.419 L 478.58 9.419 L 478.58 10.809 L 474.268 10.809 L 474.268 13.497 L 478.158 13.497 L 478.158 14.887 L 474.268 14.887 L 474.268 17.575 L 478.58 17.575 L 478.58 18.965 L 472.799 18.965 L 472.799 9.419 Z M 480.423 9.419 L 483.47 9.419 C 484.459 9.419 485.318 9.622 486.048 10.028 C 486.787 10.424 487.355 10.986 487.751 11.715 C 488.147 12.434 488.345 13.262 488.345 14.2 C 488.345 15.127 488.147 15.955 487.751 16.684 C 487.355 17.403 486.787 17.965 486.048 18.372 C 485.318 18.767 484.459 18.965 483.47 18.965 L 480.423 18.965 L 480.423 9.419 Z M 483.438 17.575 C 484.522 17.575 485.36 17.278 485.954 16.684 C 486.558 16.08 486.86 15.252 486.86 14.2 C 486.86 13.137 486.558 12.309 485.954 11.715 C 485.36 11.111 484.522 10.809 483.438 10.809 L 481.891 10.809 L 481.891 17.575 L 483.438 17.575 Z M 492.8 19.184 C 492.008 19.184 491.295 18.955 490.66 18.497 C 490.024 18.028 489.587 17.377 489.347 16.544 L 490.722 15.981 C 490.868 16.512 491.123 16.95 491.488 17.294 C 491.852 17.627 492.29 17.794 492.8 17.794 C 493.279 17.794 493.686 17.669 494.019 17.419 C 494.352 17.169 494.519 16.825 494.519 16.387 C 494.519 15.991 494.373 15.663 494.081 15.403 C 493.79 15.142 493.285 14.887 492.566 14.637 L 491.972 14.419 C 491.316 14.189 490.774 13.872 490.347 13.465 C 489.92 13.049 489.706 12.497 489.706 11.809 C 489.706 11.34 489.831 10.908 490.081 10.512 C 490.331 10.106 490.686 9.788 491.144 9.559 C 491.602 9.33 492.123 9.215 492.706 9.215 C 493.529 9.215 494.186 9.419 494.675 9.825 C 495.175 10.221 495.514 10.674 495.691 11.184 L 494.378 11.747 C 494.285 11.424 494.097 11.148 493.816 10.919 C 493.535 10.689 493.165 10.575 492.706 10.575 C 492.279 10.575 491.915 10.689 491.613 10.919 C 491.311 11.148 491.16 11.439 491.16 11.794 C 491.16 12.127 491.295 12.403 491.566 12.622 C 491.837 12.83 492.253 13.033 492.816 13.231 L 493.425 13.45 C 494.248 13.731 494.878 14.101 495.316 14.559 C 495.764 15.007 495.988 15.611 495.988 16.372 C 495.988 16.986 495.831 17.507 495.519 17.934 C 495.206 18.351 494.8 18.663 494.3 18.872 C 493.811 19.08 493.311 19.184 492.8 19.184 Z" fill-rule="nonzero"/>
    <path fill="#000000" d="M 429.076 25.419 L 430.545 25.419 L 430.545 34.965 L 429.076 34.965 L 429.076 25.419 Z M 432.688 25.419 L 434.657 25.419 L 437.454 32.684 L 437.532 32.684 L 440.329 25.419 L 442.298 25.419 L 442.298 34.965 L 440.86 34.965 L 440.86 29.575 L 440.938 27.872 L 440.86 27.872 L 438.079 34.965 L 436.907 34.965 L 434.126 27.872 L 434.048 27.872 L 434.126 29.575 L 434.126 34.965 L 432.688 34.965 L 432.688 25.419 Z M 444.457 25.419 L 447.738 25.419 C 448.311 25.419 448.832 25.544 449.301 25.794 C 449.78 26.044 450.16 26.392 450.441 26.84 C 450.723 27.278 450.863 27.778 450.863 28.34 C 450.863 28.903 450.723 29.408 450.441 29.856 C 450.16 30.294 449.78 30.637 449.301 30.887 C 448.832 31.137 448.311 31.262 447.738 31.262 L 445.926 31.262 L 445.926 34.965 L 444.457 34.965 L 444.457 25.419 Z M 447.769 29.872 C 448.259 29.872 448.655 29.721 448.957 29.419 C 449.259 29.106 449.41 28.747 449.41 28.34 C 449.41 27.934 449.259 27.58 448.957 27.278 C 448.655 26.965 448.259 26.809 447.769 26.809 L 445.926 26.809 L 445.926 29.872 L 447.769 29.872 Z M 452.36 25.419 L 455.704 25.419 C 456.288 25.419 456.808 25.544 457.267 25.794 C 457.735 26.044 458.105 26.392 458.376 26.84 C 458.647 27.278 458.782 27.778 458.782 28.34 C 458.782 28.976 458.574 29.544 458.157 30.044 C 457.751 30.533 457.235 30.861 456.61 31.028 L 456.595 31.106 L 459.22 34.887 L 459.22 34.965 L 457.532 34.965 L 454.985 31.215 L 453.829 31.215 L 453.829 34.965 L 452.36 34.965 L 452.36 25.419 Z M 455.673 29.872 C 456.131 29.872 456.517 29.726 456.829 29.434 C 457.152 29.142 457.314 28.773 457.314 28.325 C 457.314 27.919 457.168 27.564 456.876 27.262 C 456.584 26.95 456.199 26.794 455.72 26.794 L 453.829 26.794 L 453.829 29.872 L 455.673 29.872 Z M 464.959 35.184 C 464.032 35.184 463.189 34.96 462.428 34.512 C 461.678 34.064 461.084 33.46 460.647 32.7 C 460.22 31.939 460.006 31.106 460.006 30.2 C 460.006 29.283 460.22 28.445 460.647 27.684 C 461.084 26.924 461.678 26.325 462.428 25.887 C 463.189 25.439 464.032 25.215 464.959 25.215 C 465.886 25.215 466.725 25.439 467.475 25.887 C 468.225 26.325 468.814 26.924 469.241 27.684 C 469.668 28.445 469.881 29.283 469.881 30.2 C 469.881 31.106 469.668 31.939 469.241 32.7 C 468.814 33.46 468.225 34.064 467.475 34.512 C 466.725 34.96 465.886 35.184 464.959 35.184 Z M 464.959 33.794 C 465.595 33.794 466.178 33.642 466.709 33.34 C 467.241 33.028 467.657 32.601 467.959 32.059 C 468.272 31.507 468.428 30.887 468.428 30.2 C 468.428 29.502 468.272 28.882 467.959 28.34 C 467.657 27.788 467.241 27.361 466.709 27.059 C 466.178 26.747 465.595 26.59 464.959 26.59 C 464.314 26.59 463.725 26.747 463.194 27.059 C 462.673 27.361 462.256 27.788 461.944 28.34 C 461.642 28.882 461.491 29.502 461.491 30.2 C 461.491 30.887 461.642 31.507 461.944 32.059 C 462.256 32.601 462.673 33.028 463.194 33.34 C 463.725 33.642 464.314 33.794 464.959 33.794 Z M 470.289 25.419 L 471.883 25.419 L 474.039 31.762 L 474.383 32.84 L 474.461 32.84 L 474.82 31.762 L 477.07 25.419 L 478.664 25.419 L 475.195 34.965 L 473.68 34.965 L 470.289 25.419 Z M 479.936 25.419 L 485.717 25.419 L 485.717 26.809 L 481.405 26.809 L 481.405 29.497 L 485.295 29.497 L 485.295 30.887 L 481.405 30.887 L 481.405 33.575 L 485.717 33.575 L 485.717 34.965 L 479.936 34.965 L 479.936 25.419 Z M 487.56 25.419 L 489.529 25.419 L 492.325 32.684 L 492.404 32.684 L 495.2 25.419 L 497.169 25.419 L 497.169 34.965 L 495.732 34.965 L 495.732 29.575 L 495.81 27.872 L 495.732 27.872 L 492.95 34.965 L 491.779 34.965 L 488.997 27.872 L 488.919 27.872 L 488.997 29.575 L 488.997 34.965 L 487.56 34.965 L 487.56 25.419 Z M 499.328 25.419 L 505.11 25.419 L 505.11 26.809 L 500.797 26.809 L 500.797 29.497 L 504.688 29.497 L 504.688 30.887 L 500.797 30.887 L 500.797 33.575 L 505.11 33.575 L 505.11 34.965 L 499.328 34.965 L 499.328 25.419 Z M 506.952 25.419 L 508.686 25.419 L 512.999 32.434 L 513.077 32.434 L 512.999 30.59 L 512.999 25.419 L 514.452 25.419 L 514.452 34.965 L 512.936 34.965 L 508.405 27.59 L 508.327 27.59 L 508.405 29.434 L 508.405 34.965 L 506.952 34.965 L 506.952 25.419 Z M 518.568 26.809 L 515.881 26.809 L 515.881 25.419 L 522.693 25.419 L 522.693 26.809 L 520.021 26.809 L 520.021 34.965 L 518.568 34.965 L 518.568 26.809 Z" fill-rule="nonzero"/>
    <path fill="#ff4e42" d="M 537.951 0.56 L 653.163 0.56 L 653.163 43.773 L 537.951 43.773 L 537.951 0.56 Z" fill-rule="evenodd"/>
    <path fill="#000000" d="M 577.656 17.419 L 580.937 17.419 C 581.51 17.419 582.031 17.544 582.5 17.794 C 582.979 18.044 583.359 18.393 583.64 18.841 C 583.922 19.279 584.062 19.779 584.062 20.341 C 584.062 20.904 583.922 21.409 583.64 21.857 C 583.359 22.294 582.979 22.638 582.5 22.888 C 582.031 23.138 581.51 23.263 580.937 23.263 L 579.125 23.263 L 579.125 26.966 L 577.656 26.966 L 577.656 17.419 Z M 580.969 21.873 C 581.458 21.873 581.854 21.722 582.156 21.419 C 582.458 21.107 582.609 20.748 582.609 20.341 C 582.609 19.935 582.458 19.581 582.156 19.279 C 581.854 18.966 581.458 18.81 580.969 18.81 L 579.125 18.81 L 579.125 21.873 L 580.969 21.873 Z M 589.908 27.185 C 588.981 27.185 588.137 26.961 587.377 26.513 C 586.627 26.065 586.033 25.461 585.596 24.701 C 585.169 23.94 584.955 23.107 584.955 22.201 C 584.955 21.284 585.169 20.445 585.596 19.685 C 586.033 18.925 586.627 18.326 587.377 17.888 C 588.137 17.44 588.981 17.216 589.908 17.216 C 590.835 17.216 591.674 17.44 592.424 17.888 C 593.174 18.326 593.762 18.925 594.19 19.685 C 594.617 20.445 594.83 21.284 594.83 22.201 C 594.83 23.107 594.617 23.94 594.19 24.701 C 593.762 25.461 593.174 26.065 592.424 26.513 C 591.674 26.961 590.835 27.185 589.908 27.185 Z M 589.908 25.794 C 590.544 25.794 591.127 25.643 591.658 25.341 C 592.19 25.029 592.606 24.602 592.908 24.06 C 593.221 23.508 593.377 22.888 593.377 22.201 C 593.377 21.503 593.221 20.883 592.908 20.341 C 592.606 19.789 592.19 19.362 591.658 19.06 C 591.127 18.748 590.544 18.591 589.908 18.591 C 589.262 18.591 588.674 18.748 588.143 19.06 C 587.622 19.362 587.205 19.789 586.893 20.341 C 586.591 20.883 586.44 21.503 586.44 22.201 C 586.44 22.888 586.591 23.508 586.893 24.06 C 587.205 24.602 587.622 25.029 588.143 25.341 C 588.674 25.643 589.262 25.794 589.908 25.794 Z M 600.864 27.185 C 599.937 27.185 599.093 26.961 598.333 26.513 C 597.583 26.065 596.989 25.461 596.551 24.701 C 596.124 23.94 595.911 23.107 595.911 22.201 C 595.911 21.284 596.124 20.445 596.551 19.685 C 596.989 18.925 597.583 18.326 598.333 17.888 C 599.093 17.44 599.937 17.216 600.864 17.216 C 601.791 17.216 602.63 17.44 603.38 17.888 C 604.13 18.326 604.718 18.925 605.145 19.685 C 605.572 20.445 605.786 21.284 605.786 22.201 C 605.786 23.107 605.572 23.94 605.145 24.701 C 604.718 25.461 604.13 26.065 603.38 26.513 C 602.63 26.961 601.791 27.185 600.864 27.185 Z M 600.864 25.794 C 601.499 25.794 602.083 25.643 602.614 25.341 C 603.145 25.029 603.562 24.602 603.864 24.06 C 604.176 23.508 604.333 22.888 604.333 22.201 C 604.333 21.503 604.176 20.883 603.864 20.341 C 603.562 19.789 603.145 19.362 602.614 19.06 C 602.083 18.748 601.499 18.591 600.864 18.591 C 600.218 18.591 599.63 18.748 599.098 19.06 C 598.577 19.362 598.161 19.789 597.848 20.341 C 597.546 20.883 597.395 21.503 597.395 22.201 C 597.395 22.888 597.546 23.508 597.848 24.06 C 598.161 24.602 598.577 25.029 599.098 25.341 C 599.63 25.643 600.218 25.794 600.864 25.794 Z M 607.484 17.419 L 610.828 17.419 C 611.411 17.419 611.932 17.544 612.39 17.794 C 612.859 18.044 613.229 18.393 613.5 18.841 C 613.771 19.279 613.906 19.779 613.906 20.341 C 613.906 20.977 613.698 21.544 613.281 22.044 C 612.875 22.534 612.359 22.862 611.734 23.029 L 611.719 23.107 L 614.344 26.888 L 614.344 26.966 L 612.656 26.966 L 610.109 23.216 L 608.953 23.216 L 608.953 26.966 L 607.484 26.966 L 607.484 17.419 Z M 610.797 21.873 C 611.255 21.873 611.64 21.727 611.953 21.435 C 612.276 21.143 612.437 20.774 612.437 20.326 C 612.437 19.919 612.291 19.565 612 19.263 C 611.708 18.951 611.323 18.794 610.844 18.794 L 608.953 18.794 L 608.953 21.873 L 610.797 21.873 Z" fill-rule="nonzero"/>
    <path fill="#000000" fill-opacity="0.0" d="M 489.926 67.759 L 585.926 67.759 L 585.926 96.546 L 489.926 96.546 L 489.926 67.759 Z" fill-rule="evenodd"/>
    <path fill="#434343" d="M 525.98 88.574 C 525.011 88.574 524.157 88.303 523.418 87.761 C 522.689 87.209 522.121 86.464 521.715 85.527 C 521.319 84.589 521.121 83.537 521.121 82.371 C 521.121 81.204 521.319 80.152 521.715 79.214 C 522.121 78.266 522.689 77.522 523.418 76.98 C 524.157 76.438 525.011 76.167 525.98 76.167 C 526.949 76.167 527.803 76.438 528.543 76.98 C 529.282 77.522 529.85 78.266 530.246 79.214 C 530.642 80.152 530.84 81.204 530.84 82.371 C 530.84 83.537 530.642 84.589 530.246 85.527 C 529.85 86.464 529.282 87.209 528.543 87.761 C 527.803 88.303 526.949 88.574 525.98 88.574 Z M 525.98 86.808 C 526.595 86.808 527.126 86.615 527.574 86.23 C 528.022 85.834 528.366 85.303 528.605 84.636 C 528.845 83.97 528.965 83.214 528.965 82.371 C 528.965 81.527 528.845 80.766 528.605 80.089 C 528.366 79.412 528.022 78.886 527.574 78.511 C 527.126 78.126 526.595 77.933 525.98 77.933 C 525.376 77.933 524.85 78.126 524.402 78.511 C 523.965 78.886 523.626 79.412 523.386 80.089 C 523.147 80.766 523.027 81.527 523.027 82.371 C 523.027 83.214 523.147 83.97 523.386 84.636 C 523.626 85.303 523.965 85.834 524.402 86.23 C 524.85 86.615 525.376 86.808 525.98 86.808 Z M 533.979 88.402 C 533.615 88.402 533.302 88.277 533.042 88.027 C 532.792 87.766 532.667 87.454 532.667 87.089 C 532.667 86.735 532.792 86.433 533.042 86.183 C 533.302 85.923 533.615 85.792 533.979 85.792 C 534.354 85.792 534.661 85.917 534.901 86.167 C 535.151 86.417 535.276 86.725 535.276 87.089 C 535.276 87.454 535.151 87.766 534.901 88.027 C 534.661 88.277 534.354 88.402 533.979 88.402 Z M 537.082 86.527 C 539.425 84.193 540.868 82.725 541.41 82.121 C 541.92 81.589 542.269 81.157 542.457 80.824 C 542.644 80.49 542.738 80.1 542.738 79.652 C 542.738 79.183 542.561 78.782 542.207 78.449 C 541.852 78.105 541.373 77.933 540.769 77.933 C 540.217 77.933 539.769 78.095 539.425 78.417 C 539.092 78.73 538.863 79.1 538.738 79.527 L 537.05 78.824 C 537.165 78.417 537.378 78.011 537.691 77.605 C 538.014 77.199 538.441 76.86 538.972 76.589 C 539.503 76.308 540.118 76.167 540.816 76.167 C 541.566 76.167 542.227 76.324 542.8 76.636 C 543.384 76.949 543.832 77.365 544.144 77.886 C 544.467 78.397 544.628 78.964 544.628 79.589 C 544.628 80.839 543.998 82.095 542.738 83.355 C 542.227 83.865 541.655 84.438 541.019 85.074 C 540.373 85.709 539.884 86.199 539.55 86.542 L 539.566 86.589 L 544.769 86.589 L 544.769 88.292 L 537.082 88.292 L 537.082 86.527 Z M 550.503 88.574 C 549.909 88.574 549.331 88.454 548.769 88.214 C 548.206 87.975 547.717 87.615 547.3 87.136 C 546.883 86.657 546.586 86.068 546.409 85.371 L 548.081 84.699 C 548.248 85.355 548.534 85.876 548.941 86.261 C 549.357 86.636 549.873 86.824 550.487 86.824 C 551.144 86.824 551.685 86.615 552.112 86.199 C 552.55 85.772 552.769 85.23 552.769 84.574 C 552.769 83.907 552.555 83.36 552.128 82.933 C 551.711 82.496 551.17 82.277 550.503 82.277 C 550.118 82.277 549.758 82.36 549.425 82.527 C 549.102 82.693 548.836 82.923 548.628 83.214 L 546.784 82.402 L 547.503 76.433 L 553.909 76.433 L 553.909 78.136 L 549.034 78.136 L 548.597 81.324 L 548.691 81.339 C 549.316 80.85 550.039 80.605 550.862 80.605 C 551.529 80.605 552.149 80.772 552.722 81.105 C 553.305 81.438 553.769 81.907 554.112 82.511 C 554.467 83.105 554.644 83.782 554.644 84.542 C 554.644 85.313 554.461 86.006 554.097 86.621 C 553.743 87.225 553.248 87.704 552.612 88.058 C 551.987 88.402 551.284 88.574 550.503 88.574 Z" fill-rule="nonzero"/>
    <path fill="#000000" fill-opacity="0.0" d="M 365.126 67.759 L 461.126 67.759 L 461.126 96.546 L 365.126 96.546 L 365.126 67.759 Z" fill-rule="evenodd"/>
    <path fill="#434343" d="M 407.661 88.574 C 406.692 88.574 405.838 88.303 405.098 87.761 C 404.369 87.209 403.802 86.464 403.395 85.527 C 403 84.589 402.802 83.537 402.802 82.371 C 402.802 81.204 403 80.152 403.395 79.214 C 403.802 78.266 404.369 77.522 405.098 76.98 C 405.838 76.438 406.692 76.167 407.661 76.167 C 408.63 76.167 409.484 76.438 410.223 76.98 C 410.963 77.522 411.531 78.266 411.927 79.214 C 412.322 80.152 412.52 81.204 412.52 82.371 C 412.52 83.537 412.322 84.589 411.927 85.527 C 411.531 86.464 410.963 87.209 410.223 87.761 C 409.484 88.303 408.63 88.574 407.661 88.574 Z M 407.661 86.808 C 408.276 86.808 408.807 86.615 409.255 86.23 C 409.703 85.834 410.046 85.303 410.286 84.636 C 410.526 83.97 410.645 83.214 410.645 82.371 C 410.645 81.527 410.526 80.766 410.286 80.089 C 410.046 79.412 409.703 78.886 409.255 78.511 C 408.807 78.126 408.276 77.933 407.661 77.933 C 407.057 77.933 406.531 78.126 406.083 78.511 C 405.645 78.886 405.307 79.412 405.067 80.089 C 404.828 80.766 404.708 81.527 404.708 82.371 C 404.708 83.214 404.828 83.97 405.067 84.636 C 405.307 85.303 405.645 85.834 406.083 86.23 C 406.531 86.615 407.057 86.808 407.661 86.808 Z M 415.66 88.402 C 415.295 88.402 414.983 88.277 414.722 88.027 C 414.472 87.766 414.347 87.454 414.347 87.089 C 414.347 86.735 414.472 86.433 414.722 86.183 C 414.983 85.923 415.295 85.792 415.66 85.792 C 416.035 85.792 416.342 85.917 416.582 86.167 C 416.832 86.417 416.957 86.725 416.957 87.089 C 416.957 87.454 416.832 87.766 416.582 88.027 C 416.342 88.277 416.035 88.402 415.66 88.402 Z M 420.913 78.949 L 418.975 80.339 L 418.022 78.902 L 421.444 76.433 L 422.788 76.433 L 422.788 88.292 L 420.913 88.292 L 420.913 78.949 Z" fill-rule="nonzero"/>
    <path fill="#000000" fill-opacity="0.0" d="M 412.811 68.706 L 412.811 39.919" fill-rule="evenodd"/>
    <path stroke="#434343" stroke-width="2.0" stroke-linejoin="round" stroke-linecap="butt" d="M 412.811 68.706 L 412.811 47.499" fill-rule="evenodd"/>
    <path fill="#434343" stroke="#434343" stroke-width="2.0" stroke-linecap="butt" d="M 412.811 40.919 C 414.628 40.919 416.101 42.392 416.101 44.209 C 416.101 46.026 414.628 47.499 412.811 47.499 C 410.994 47.499 409.521 46.026 409.521 44.209 C 409.521 42.392 410.994 40.919 412.811 40.919 Z" fill-rule="nonzero"/>
    <path fill="#000000" fill-opacity="0.0" d="M -33.274 72.559 L 235.513 72.559 L 235.513 110.952 L -33.274 110.952 L -33.274 72.559 Z" fill-rule="evenodd"/>
    <path fill="#666666" d="M 13.102 74.268 C 11.717 74.268 10.456 73.945 9.321 73.3 C 8.196 72.643 7.311 71.748 6.665 70.612 C 6.019 69.466 5.696 68.195 5.696 66.8 C 5.696 65.393 6.019 64.123 6.665 62.987 C 7.311 61.841 8.196 60.945 9.321 60.3 C 10.456 59.643 11.717 59.315 13.102 59.315 C 14.175 59.315 15.154 59.518 16.04 59.925 C 16.925 60.32 17.696 60.899 18.352 61.659 L 17.134 62.831 C 16.581 62.185 15.983 61.711 15.337 61.409 C 14.691 61.096 13.946 60.94 13.102 60.94 C 12.071 60.94 11.118 61.185 10.243 61.675 C 9.378 62.154 8.691 62.836 8.18 63.721 C 7.67 64.607 7.415 65.633 7.415 66.8 C 7.415 67.956 7.67 68.977 8.18 69.862 C 8.691 70.748 9.378 71.435 10.243 71.925 C 11.118 72.414 12.071 72.659 13.102 72.659 C 14.842 72.659 16.316 71.945 17.524 70.518 L 18.774 71.721 C 18.118 72.503 17.3 73.123 16.321 73.581 C 15.342 74.039 14.269 74.268 13.102 74.268 Z M 24.263 74.268 C 23.044 74.268 22.112 73.909 21.466 73.19 C 20.82 72.471 20.497 71.466 20.497 70.175 L 20.497 63.753 L 22.185 63.753 L 22.185 69.909 C 22.185 70.888 22.404 71.607 22.841 72.065 C 23.289 72.513 23.883 72.737 24.622 72.737 C 25.206 72.737 25.716 72.586 26.154 72.284 C 26.601 71.971 26.95 71.57 27.2 71.081 C 27.45 70.581 27.575 70.06 27.575 69.518 L 27.575 63.753 L 29.263 63.753 L 29.263 73.956 L 27.654 73.956 L 27.654 72.471 L 27.575 72.471 C 27.294 72.982 26.846 73.409 26.232 73.753 C 25.617 74.096 24.961 74.268 24.263 74.268 Z M 31.795 63.753 L 33.405 63.753 L 33.405 65.253 L 33.483 65.253 C 33.785 64.732 34.228 64.3 34.811 63.956 C 35.394 63.612 36.014 63.44 36.67 63.44 C 37.42 63.44 38.071 63.623 38.624 63.987 C 39.176 64.341 39.571 64.815 39.811 65.409 C 40.165 64.815 40.639 64.341 41.233 63.987 C 41.827 63.623 42.519 63.44 43.311 63.44 C 44.488 63.44 45.368 63.8 45.952 64.518 C 46.545 65.227 46.842 66.19 46.842 67.409 L 46.842 73.956 L 45.17 73.956 L 45.17 67.675 C 45.17 66.727 44.978 66.039 44.592 65.612 C 44.207 65.185 43.634 64.971 42.874 64.971 C 42.363 64.971 41.9 65.123 41.483 65.425 C 41.077 65.716 40.754 66.107 40.514 66.596 C 40.285 67.086 40.17 67.617 40.17 68.19 L 40.17 73.956 L 38.467 73.956 L 38.467 67.69 C 38.467 66.732 38.275 66.039 37.889 65.612 C 37.504 65.185 36.936 64.971 36.186 64.971 C 35.686 64.971 35.228 65.123 34.811 65.425 C 34.394 65.727 34.066 66.128 33.827 66.628 C 33.597 67.128 33.483 67.664 33.483 68.237 L 33.483 73.956 L 31.795 73.956 L 31.795 63.753 Z M 53.003 74.268 C 51.784 74.268 50.852 73.909 50.206 73.19 C 49.56 72.471 49.237 71.466 49.237 70.175 L 49.237 63.753 L 50.925 63.753 L 50.925 69.909 C 50.925 70.888 51.144 71.607 51.581 72.065 C 52.029 72.513 52.623 72.737 53.362 72.737 C 53.946 72.737 54.456 72.586 54.894 72.284 C 55.341 71.971 55.69 71.57 55.94 71.081 C 56.19 70.581 56.315 70.06 56.315 69.518 L 56.315 63.753 L 58.003 63.753 L 58.003 73.956 L 56.394 73.956 L 56.394 72.471 L 56.315 72.471 C 56.034 72.982 55.586 73.409 54.972 73.753 C 54.357 74.096 53.701 74.268 53.003 74.268 Z M 60.535 59.643 L 62.223 59.643 L 62.223 73.956 L 60.535 73.956 L 60.535 59.643 Z M 67.905 74.268 C 67.166 74.268 66.499 74.123 65.905 73.831 C 65.322 73.539 64.869 73.138 64.546 72.628 C 64.233 72.117 64.077 71.534 64.077 70.878 C 64.077 69.794 64.483 68.951 65.296 68.346 C 66.108 67.742 67.135 67.44 68.374 67.44 C 68.989 67.44 69.556 67.508 70.077 67.643 C 70.608 67.768 71.015 67.919 71.296 68.096 L 71.296 67.471 C 71.296 66.711 71.025 66.102 70.483 65.643 C 69.952 65.185 69.28 64.956 68.468 64.956 C 67.905 64.956 67.379 65.081 66.89 65.331 C 66.411 65.57 66.03 65.914 65.749 66.362 L 64.468 65.393 C 64.874 64.779 65.426 64.3 66.124 63.956 C 66.832 63.612 67.614 63.44 68.468 63.44 C 69.853 63.44 70.937 63.805 71.718 64.534 C 72.51 65.253 72.905 66.242 72.905 67.503 L 72.905 73.956 L 71.296 73.956 L 71.296 72.503 L 71.202 72.503 C 70.911 72.992 70.473 73.409 69.89 73.753 C 69.306 74.096 68.645 74.268 67.905 74.268 Z M 68.077 72.768 C 68.65 72.768 69.181 72.623 69.671 72.331 C 70.161 72.039 70.551 71.649 70.843 71.159 C 71.145 70.659 71.296 70.117 71.296 69.534 C 70.973 69.326 70.577 69.154 70.108 69.018 C 69.64 68.883 69.145 68.815 68.624 68.815 C 67.697 68.815 66.994 69.008 66.515 69.393 C 66.046 69.779 65.812 70.279 65.812 70.893 C 65.812 71.456 66.025 71.909 66.452 72.253 C 66.879 72.596 67.421 72.768 68.077 72.768 Z M 78.997 74.112 C 78.581 74.112 78.195 74.05 77.841 73.925 C 77.487 73.789 77.19 73.607 76.95 73.378 C 76.419 72.867 76.153 72.164 76.153 71.268 L 76.153 65.3 L 74.372 65.3 L 74.372 63.753 L 76.153 63.753 L 76.153 60.878 L 77.857 60.878 L 77.857 63.753 L 80.357 63.753 L 80.357 65.3 L 77.857 65.3 L 77.857 70.862 C 77.857 71.414 77.961 71.826 78.169 72.096 C 78.419 72.388 78.784 72.534 79.263 72.534 C 79.68 72.534 80.055 72.419 80.388 72.19 L 80.388 73.862 C 80.19 73.956 79.987 74.018 79.778 74.05 C 79.57 74.091 79.31 74.112 78.997 74.112 Z M 83.495 61.878 C 83.162 61.878 82.876 61.758 82.636 61.518 C 82.396 61.279 82.277 60.992 82.277 60.659 C 82.277 60.315 82.396 60.029 82.636 59.8 C 82.876 59.56 83.162 59.44 83.495 59.44 C 83.839 59.44 84.126 59.56 84.355 59.8 C 84.594 60.029 84.714 60.315 84.714 60.659 C 84.714 60.992 84.594 61.279 84.355 61.518 C 84.126 61.758 83.839 61.878 83.495 61.878 Z M 82.652 63.753 L 84.355 63.753 L 84.355 73.956 L 82.652 73.956 L 82.652 63.753 Z M 85.89 63.753 L 87.703 63.753 L 90.875 71.956 L 90.906 71.956 L 94.109 63.753 L 95.89 63.753 L 91.734 73.956 L 90.015 73.956 L 85.89 63.753 Z M 101.527 74.268 C 100.558 74.268 99.683 74.039 98.902 73.581 C 98.131 73.112 97.527 72.466 97.089 71.643 C 96.662 70.82 96.448 69.899 96.448 68.878 C 96.448 67.899 96.652 66.992 97.058 66.159 C 97.464 65.326 98.042 64.664 98.792 64.175 C 99.553 63.685 100.417 63.44 101.386 63.44 C 102.386 63.44 103.251 63.664 103.98 64.112 C 104.719 64.55 105.287 65.164 105.683 65.956 C 106.079 66.748 106.277 67.649 106.277 68.659 C 106.277 68.815 106.261 68.987 106.23 69.175 L 98.152 69.175 C 98.193 69.945 98.381 70.602 98.714 71.143 C 99.047 71.675 99.469 72.076 99.98 72.346 C 100.49 72.607 101.027 72.737 101.589 72.737 C 102.922 72.737 103.928 72.123 104.605 70.893 L 106.042 71.596 C 105.626 72.409 105.037 73.06 104.277 73.55 C 103.516 74.029 102.6 74.268 101.527 74.268 Z M 104.464 67.768 C 104.443 67.352 104.323 66.93 104.105 66.503 C 103.896 66.076 103.563 65.716 103.105 65.425 C 102.657 65.123 102.084 64.971 101.386 64.971 C 100.584 64.971 99.902 65.232 99.339 65.753 C 98.787 66.263 98.422 66.935 98.245 67.768 L 104.464 67.768 Z M 106.99 73.956 Z M 113.223 59.643 L 114.927 59.643 L 114.927 72.331 L 121.192 72.331 L 121.192 73.956 L 113.223 73.956 L 113.223 59.643 Z M 126.325 74.268 C 125.586 74.268 124.919 74.123 124.325 73.831 C 123.742 73.539 123.289 73.138 122.966 72.628 C 122.653 72.117 122.497 71.534 122.497 70.878 C 122.497 69.794 122.903 68.951 123.716 68.346 C 124.528 67.742 125.554 67.44 126.794 67.44 C 127.409 67.44 127.976 67.508 128.497 67.643 C 129.028 67.768 129.435 67.919 129.716 68.096 L 129.716 67.471 C 129.716 66.711 129.445 66.102 128.903 65.643 C 128.372 65.185 127.7 64.956 126.888 64.956 C 126.325 64.956 125.799 65.081 125.31 65.331 C 124.831 65.57 124.45 65.914 124.169 66.362 L 122.888 65.393 C 123.294 64.779 123.846 64.3 124.544 63.956 C 125.252 63.612 126.034 63.44 126.888 63.44 C 128.273 63.44 129.357 63.805 130.138 64.534 C 130.929 65.253 131.325 66.242 131.325 67.503 L 131.325 73.956 L 129.716 73.956 L 129.716 72.503 L 129.622 72.503 C 129.331 72.992 128.893 73.409 128.31 73.753 C 127.726 74.096 127.065 74.268 126.325 74.268 Z M 126.497 72.768 C 127.07 72.768 127.601 72.623 128.091 72.331 C 128.581 72.039 128.971 71.649 129.263 71.159 C 129.565 70.659 129.716 70.117 129.716 69.534 C 129.393 69.326 128.997 69.154 128.528 69.018 C 128.06 68.883 127.565 68.815 127.044 68.815 C 126.117 68.815 125.414 69.008 124.935 69.393 C 124.466 69.779 124.232 70.279 124.232 70.893 C 124.232 71.456 124.445 71.909 124.872 72.253 C 125.299 72.596 125.841 72.768 126.497 72.768 Z M 136.605 73.315 L 132.386 63.753 L 134.23 63.753 L 137.433 71.331 L 137.464 71.331 L 140.542 63.753 L 142.386 63.753 L 136.089 78.268 L 134.323 78.268 L 136.605 73.315 Z M 148.103 74.268 C 147.103 74.268 146.202 74.029 145.4 73.55 C 144.608 73.07 143.988 72.419 143.54 71.596 C 143.092 70.774 142.868 69.862 142.868 68.862 C 142.868 67.862 143.092 66.951 143.54 66.128 C 143.988 65.294 144.608 64.638 145.4 64.159 C 146.202 63.68 147.103 63.44 148.103 63.44 C 149.103 63.44 150.004 63.68 150.806 64.159 C 151.608 64.638 152.233 65.294 152.681 66.128 C 153.129 66.951 153.353 67.862 153.353 68.862 C 153.353 69.862 153.129 70.774 152.681 71.596 C 152.233 72.419 151.608 73.07 150.806 73.55 C 150.004 74.029 149.103 74.268 148.103 74.268 Z M 148.103 72.737 C 148.738 72.737 149.322 72.581 149.853 72.268 C 150.394 71.956 150.827 71.508 151.15 70.925 C 151.483 70.331 151.65 69.643 151.65 68.862 C 151.65 68.07 151.483 67.383 151.15 66.8 C 150.827 66.206 150.394 65.753 149.853 65.44 C 149.322 65.128 148.738 64.971 148.103 64.971 C 147.478 64.971 146.889 65.128 146.337 65.44 C 145.796 65.753 145.363 66.206 145.04 66.8 C 144.717 67.383 144.556 68.07 144.556 68.862 C 144.556 69.643 144.717 70.331 145.04 70.925 C 145.363 71.508 145.796 71.956 146.337 72.268 C 146.889 72.581 147.478 72.737 148.103 72.737 Z M 158.923 74.268 C 157.704 74.268 156.772 73.909 156.126 73.19 C 155.48 72.471 155.157 71.466 155.157 70.175 L 155.157 63.753 L 156.845 63.753 L 156.845 69.909 C 156.845 70.888 157.063 71.607 157.501 72.065 C 157.949 72.513 158.543 72.737 159.282 72.737 C 159.866 72.737 160.376 72.586 160.813 72.284 C 161.261 71.971 161.61 71.57 161.86 71.081 C 162.11 70.581 162.235 70.06 162.235 69.518 L 162.235 63.753 L 163.923 63.753 L 163.923 73.956 L 162.313 73.956 L 162.313 72.471 L 162.235 72.471 C 161.954 72.982 161.506 73.409 160.892 73.753 C 160.277 74.096 159.621 74.268 158.923 74.268 Z M 170.477 74.112 C 170.06 74.112 169.675 74.05 169.321 73.925 C 168.967 73.789 168.67 73.607 168.43 73.378 C 167.899 72.867 167.633 72.164 167.633 71.268 L 167.633 65.3 L 165.852 65.3 L 165.852 63.753 L 167.633 63.753 L 167.633 60.878 L 169.337 60.878 L 169.337 63.753 L 171.837 63.753 L 171.837 65.3 L 169.337 65.3 L 169.337 70.862 C 169.337 71.414 169.441 71.826 169.649 72.096 C 169.899 72.388 170.264 72.534 170.743 72.534 C 171.159 72.534 171.534 72.419 171.868 72.19 L 171.868 73.862 C 171.67 73.956 171.467 74.018 171.258 74.05 C 171.05 74.091 170.79 74.112 170.477 74.112 Z M 172.61 73.956 Z M 182.243 74.268 C 181.525 74.268 180.827 74.123 180.15 73.831 C 179.483 73.529 178.889 73.091 178.368 72.518 C 177.848 71.935 177.473 71.227 177.243 70.393 L 178.868 69.737 C 179.098 70.591 179.519 71.294 180.134 71.846 C 180.749 72.388 181.467 72.659 182.29 72.659 C 183.113 72.659 183.811 72.435 184.384 71.987 C 184.957 71.539 185.243 70.93 185.243 70.159 C 185.243 69.492 184.999 68.945 184.509 68.518 C 184.03 68.081 183.238 67.675 182.134 67.3 L 181.228 66.971 C 180.217 66.617 179.389 66.149 178.743 65.565 C 178.108 64.971 177.79 64.154 177.79 63.112 C 177.79 62.435 177.978 61.81 178.353 61.237 C 178.728 60.654 179.249 60.19 179.915 59.846 C 180.582 59.492 181.327 59.315 182.15 59.315 C 182.973 59.315 183.691 59.471 184.306 59.784 C 184.92 60.086 185.41 60.456 185.775 60.893 C 186.15 61.331 186.41 61.763 186.556 62.19 L 184.962 62.878 C 184.816 62.388 184.509 61.945 184.04 61.55 C 183.572 61.143 182.947 60.94 182.165 60.94 C 181.436 60.94 180.811 61.149 180.29 61.565 C 179.769 61.971 179.509 62.487 179.509 63.112 C 179.509 63.675 179.728 64.133 180.165 64.487 C 180.613 64.841 181.28 65.169 182.165 65.471 L 183.103 65.8 C 184.322 66.237 185.269 66.789 185.947 67.456 C 186.624 68.112 186.962 69.008 186.962 70.143 C 186.962 71.06 186.728 71.831 186.259 72.456 C 185.79 73.081 185.191 73.539 184.462 73.831 C 183.743 74.123 183.004 74.268 182.243 74.268 Z M 189.155 59.643 L 190.843 59.643 L 190.843 63.862 L 190.765 65.253 L 190.843 65.253 C 191.124 64.732 191.567 64.3 192.171 63.956 C 192.785 63.612 193.452 63.44 194.171 63.44 C 195.41 63.44 196.353 63.805 196.999 64.534 C 197.655 65.253 197.983 66.211 197.983 67.409 L 197.983 73.956 L 196.296 73.956 L 196.296 67.675 C 196.296 66.758 196.062 66.081 195.593 65.643 C 195.124 65.195 194.515 64.971 193.765 64.971 C 193.233 64.971 192.744 65.133 192.296 65.456 C 191.848 65.779 191.494 66.195 191.233 66.706 C 190.973 67.206 190.843 67.727 190.843 68.268 L 190.843 73.956 L 189.155 73.956 L 189.155 59.643 Z M 201.435 61.878 C 201.102 61.878 200.815 61.758 200.576 61.518 C 200.336 61.279 200.216 60.992 200.216 60.659 C 200.216 60.315 200.336 60.029 200.576 59.8 C 200.815 59.56 201.102 59.44 201.435 59.44 C 201.779 59.44 202.065 59.56 202.295 59.8 C 202.534 60.029 202.654 60.315 202.654 60.659 C 202.654 60.992 202.534 61.279 202.295 61.518 C 202.065 61.758 201.779 61.878 201.435 61.878 Z M 200.591 63.753 L 202.295 63.753 L 202.295 73.956 L 200.591 73.956 L 200.591 63.753 Z M 215.315 74.112 C 214.898 74.112 214.513 74.05 214.158 73.925 C 213.804 73.789 213.507 73.607 213.268 73.378 C 212.736 72.867 212.471 72.164 212.471 71.268 L 212.471 65.3 L 207.83 65.3 L 207.83 73.956 L 206.127 73.956 L 206.127 65.3 L 204.252 65.3 L 204.252 63.753 L 206.127 63.753 L 206.127 62.659 C 206.127 62.013 206.273 61.451 206.565 60.971 C 206.856 60.492 207.247 60.123 207.736 59.862 C 208.236 59.602 208.789 59.471 209.393 59.471 C 209.966 59.471 210.466 59.555 210.893 59.721 L 210.893 61.378 C 210.653 61.284 210.424 61.206 210.205 61.143 C 209.997 61.081 209.747 61.05 209.455 61.05 C 209.007 61.05 208.622 61.211 208.299 61.534 C 207.986 61.846 207.83 62.279 207.83 62.831 L 207.83 63.753 L 212.471 63.753 L 212.471 60.878 L 214.174 60.878 L 214.174 63.753 L 216.674 63.753 L 216.674 65.3 L 214.174 65.3 L 214.174 70.862 C 214.174 71.435 214.278 71.846 214.486 72.096 C 214.747 72.388 215.117 72.534 215.596 72.534 C 216.002 72.534 216.372 72.419 216.705 72.19 L 216.705 73.862 C 216.507 73.956 216.304 74.018 216.096 74.05 C 215.888 74.091 215.627 74.112 215.315 74.112 Z" fill-rule="nonzero"/>
    <path fill="#000000" fill-opacity="0.0" d="M 537.926 68.586 L 537.926 40.019" fill-rule="evenodd"/>
    <path stroke="#434343" stroke-width="2.0" stroke-linejoin="round" stroke-linecap="butt" d="M 537.926 68.586 L 537.926 47.599" fill-rule="evenodd"/>
    <path fill="#434343" stroke="#434343" stroke-width="2.0" stroke-linecap="butt" d="M 537.926 41.019 C 539.743 41.019 541.216 42.492 541.216 44.309 C 541.216 46.126 539.743 47.599 537.926 47.599 C 536.109 47.599 534.636 46.126 534.636 44.309 C 534.636 42.492 536.109 41.019 537.926 41.019 Z" fill-rule="nonzero"/>
  </g>
</svg>