<?xml version="1.0" encoding="utf-8"?>
<svg version="1.1" viewBox="-1.404 -2.106 642.35 98.64" fill="none" stroke="none" stroke-linecap="square" stroke-miterlimit="10" xmlns="http://www.w3.org/2000/svg">
  <clipPath id="p.0">
    <path d="m0 0l768.0 0l0 192.0l-768.0 0l0 -192.0z" clip-rule="nonzero"/>
  </clipPath>
  <g clip-path="url(#p.0)">
    <path fill="#000000" fill-opacity="0.0" d="M -78.148 -56.156 L 689.852 -56.156 L 689.852 135.844 L -78.148 135.844 L -78.148 -56.156 Z" fill-rule="evenodd"/>
    <path fill="#000000" fill-opacity="0.0" d="M -49.348 -36.956 L 209.864 -36.956 L 209.864 78.256 L -49.348 78.256 L -49.348 -36.956 Z" fill-rule="evenodd"/>
    <path fill="#2979ff" d="M 19.949 6.293 L 57.383 6.293 L 57.383 13.66 L 31.076 13.66 L 31.076 23.677 L 54.752 23.677 L 54.752 31.053 L 31.076 31.053 L 31.076 47.519 L 19.949 47.519 L 19.949 6.293 Z M 67.201 6.293 L 78.327 6.293 L 78.327 47.519 L 67.201 47.519 L 67.201 6.293 Z M 91.775 6.293 L 111.734 6.293 C 117.889 6.293 123.249 7.159 127.812 8.89 C 132.376 10.614 135.893 13.031 138.362 16.143 C 140.84 19.248 142.08 22.835 142.08 26.902 C 142.08 30.975 140.84 34.567 138.362 37.679 C 135.893 40.785 132.376 43.203 127.812 44.932 C 123.249 46.658 117.889 47.519 111.734 47.519 L 91.775 47.519 L 91.775 6.293 Z M 111.237 40.154 C 117.607 40.154 122.471 38.971 125.826 36.61 C 129.181 34.249 130.859 31.012 130.859 26.902 C 130.859 22.797 129.181 19.564 125.826 17.203 C 122.471 14.84 117.607 13.66 111.237 13.66 L 102.901 13.66 L 102.901 40.154 L 111.237 40.154 Z" fill-rule="nonzero" style=""/>
    <path fill="#0cce6b" d="M 281.852 1.444 L 397.064 1.444 L 397.064 44.656 L 281.852 44.656 L 281.852 1.444 Z" fill-rule="evenodd"/>
    <path fill="#000000" d="M 323.774 28.069 C 322.867 28.069 322.034 27.85 321.274 27.412 C 320.513 26.975 319.904 26.376 319.445 25.616 C 318.997 24.855 318.774 24.011 318.774 23.084 C 318.774 22.147 318.997 21.298 319.445 20.537 C 319.904 19.777 320.513 19.183 321.274 18.756 C 322.034 18.319 322.867 18.1 323.774 18.1 C 324.503 18.1 325.175 18.23 325.789 18.491 C 326.404 18.741 326.925 19.095 327.352 19.553 L 326.336 20.569 C 325.69 19.839 324.836 19.475 323.774 19.475 C 323.159 19.475 322.576 19.626 322.024 19.928 C 321.482 20.22 321.05 20.642 320.727 21.194 C 320.414 21.746 320.258 22.376 320.258 23.084 C 320.258 23.793 320.419 24.423 320.742 24.975 C 321.065 25.517 321.497 25.938 322.039 26.241 C 322.581 26.532 323.164 26.678 323.789 26.678 C 324.8 26.678 325.617 26.36 326.242 25.725 C 326.451 25.537 326.622 25.293 326.758 24.991 C 326.893 24.688 326.987 24.355 327.039 23.991 L 323.758 23.991 L 323.758 22.694 L 328.399 22.694 C 328.451 22.996 328.477 23.251 328.477 23.459 C 328.477 24.063 328.383 24.642 328.195 25.194 C 328.008 25.735 327.711 26.214 327.305 26.631 C 326.878 27.1 326.367 27.459 325.774 27.709 C 325.18 27.949 324.513 28.069 323.774 28.069 Z M 334.642 28.069 C 333.715 28.069 332.871 27.845 332.111 27.397 C 331.361 26.949 330.767 26.345 330.33 25.584 C 329.903 24.824 329.689 23.991 329.689 23.084 C 329.689 22.168 329.903 21.329 330.33 20.569 C 330.767 19.808 331.361 19.209 332.111 18.772 C 332.871 18.324 333.715 18.1 334.642 18.1 C 335.569 18.1 336.408 18.324 337.158 18.772 C 337.908 19.209 338.496 19.808 338.924 20.569 C 339.351 21.329 339.564 22.168 339.564 23.084 C 339.564 23.991 339.351 24.824 338.924 25.584 C 338.496 26.345 337.908 26.949 337.158 27.397 C 336.408 27.845 335.569 28.069 334.642 28.069 Z M 334.642 26.678 C 335.278 26.678 335.861 26.527 336.392 26.225 C 336.924 25.912 337.34 25.485 337.642 24.944 C 337.955 24.392 338.111 23.772 338.111 23.084 C 338.111 22.386 337.955 21.767 337.642 21.225 C 337.34 20.673 336.924 20.246 336.392 19.944 C 335.861 19.631 335.278 19.475 334.642 19.475 C 333.996 19.475 333.408 19.631 332.877 19.944 C 332.356 20.246 331.939 20.673 331.627 21.225 C 331.325 21.767 331.174 22.386 331.174 23.084 C 331.174 23.772 331.325 24.392 331.627 24.944 C 331.939 25.485 332.356 25.912 332.877 26.225 C 333.408 26.527 333.996 26.678 334.642 26.678 Z M 345.598 28.069 C 344.671 28.069 343.827 27.845 343.067 27.397 C 342.317 26.949 341.723 26.345 341.285 25.584 C 340.858 24.824 340.645 23.991 340.645 23.084 C 340.645 22.168 340.858 21.329 341.285 20.569 C 341.723 19.808 342.317 19.209 343.067 18.772 C 343.827 18.324 344.671 18.1 345.598 18.1 C 346.525 18.1 347.364 18.324 348.114 18.772 C 348.864 19.209 349.452 19.808 349.879 20.569 C 350.306 21.329 350.52 22.168 350.52 23.084 C 350.52 23.991 350.306 24.824 349.879 25.584 C 349.452 26.345 348.864 26.949 348.114 27.397 C 347.364 27.845 346.525 28.069 345.598 28.069 Z M 345.598 26.678 C 346.233 26.678 346.817 26.527 347.348 26.225 C 347.879 25.912 348.296 25.485 348.598 24.944 C 348.91 24.392 349.067 23.772 349.067 23.084 C 349.067 22.386 348.91 21.767 348.598 21.225 C 348.296 20.673 347.879 20.246 347.348 19.944 C 346.817 19.631 346.233 19.475 345.598 19.475 C 344.952 19.475 344.364 19.631 343.832 19.944 C 343.311 20.246 342.895 20.673 342.582 21.225 C 342.28 21.767 342.129 22.386 342.129 23.084 C 342.129 23.772 342.28 24.392 342.582 24.944 C 342.895 25.485 343.311 25.912 343.832 26.225 C 344.364 26.527 344.952 26.678 345.598 26.678 Z M 352.218 18.303 L 355.265 18.303 C 356.255 18.303 357.114 18.506 357.843 18.912 C 358.583 19.308 359.15 19.871 359.546 20.6 C 359.942 21.319 360.14 22.147 360.14 23.084 C 360.14 24.011 359.942 24.839 359.546 25.569 C 359.15 26.287 358.583 26.85 357.843 27.256 C 357.114 27.652 356.255 27.85 355.265 27.85 L 352.218 27.85 L 352.218 18.303 Z M 355.234 26.459 C 356.317 26.459 357.156 26.162 357.749 25.569 C 358.354 24.964 358.656 24.136 358.656 23.084 C 358.656 22.022 358.354 21.194 357.749 20.6 C 357.156 19.996 356.317 19.694 355.234 19.694 L 353.687 19.694 L 353.687 26.459 L 355.234 26.459 Z" fill-rule="nonzero"/>
    <path fill="#ffa400" d="M 397.052 1.444 L 521.839 1.444 L 521.839 44.657 L 397.052 44.657 L 397.052 1.444 Z" fill-rule="evenodd"/>
    <path fill="#000000" d="M 439.439 10.303 L 441.173 10.303 L 445.485 17.319 L 445.564 17.319 L 445.485 15.475 L 445.485 10.303 L 446.939 10.303 L 446.939 19.85 L 445.423 19.85 L 440.892 12.475 L 440.814 12.475 L 440.892 14.319 L 440.892 19.85 L 439.439 19.85 L 439.439 10.303 Z M 449.101 10.303 L 454.883 10.303 L 454.883 11.694 L 450.57 11.694 L 450.57 14.382 L 454.461 14.382 L 454.461 15.772 L 450.57 15.772 L 450.57 18.46 L 454.883 18.46 L 454.883 19.85 L 449.101 19.85 L 449.101 10.303 Z M 456.725 10.303 L 462.506 10.303 L 462.506 11.694 L 458.194 11.694 L 458.194 14.382 L 462.084 14.382 L 462.084 15.772 L 458.194 15.772 L 458.194 18.46 L 462.506 18.46 L 462.506 19.85 L 456.725 19.85 L 456.725 10.303 Z M 464.349 10.303 L 467.396 10.303 C 468.385 10.303 469.245 10.507 469.974 10.913 C 470.713 11.309 471.281 11.871 471.677 12.6 C 472.073 13.319 472.271 14.147 472.271 15.085 C 472.271 16.012 472.073 16.84 471.677 17.569 C 471.281 18.288 470.713 18.85 469.974 19.257 C 469.245 19.652 468.385 19.85 467.396 19.85 L 464.349 19.85 L 464.349 10.303 Z M 467.364 18.46 C 468.448 18.46 469.286 18.163 469.88 17.569 C 470.484 16.965 470.786 16.137 470.786 15.085 C 470.786 14.022 470.484 13.194 469.88 12.6 C 469.286 11.996 468.448 11.694 467.364 11.694 L 465.817 11.694 L 465.817 18.46 L 467.364 18.46 Z M 476.726 20.069 C 475.935 20.069 475.221 19.84 474.586 19.382 C 473.95 18.913 473.513 18.262 473.273 17.428 L 474.648 16.866 C 474.794 17.397 475.049 17.835 475.414 18.178 C 475.778 18.512 476.216 18.678 476.726 18.678 C 477.205 18.678 477.612 18.553 477.945 18.303 C 478.278 18.053 478.445 17.71 478.445 17.272 C 478.445 16.876 478.299 16.548 478.007 16.288 C 477.716 16.027 477.211 15.772 476.492 15.522 L 475.898 15.303 C 475.242 15.074 474.7 14.757 474.273 14.35 C 473.846 13.934 473.632 13.382 473.632 12.694 C 473.632 12.225 473.757 11.793 474.007 11.397 C 474.257 10.991 474.612 10.673 475.07 10.444 C 475.528 10.215 476.049 10.1 476.632 10.1 C 477.455 10.1 478.112 10.303 478.601 10.71 C 479.101 11.105 479.44 11.559 479.617 12.069 L 478.304 12.632 C 478.211 12.309 478.023 12.033 477.742 11.803 C 477.461 11.574 477.091 11.46 476.632 11.46 C 476.205 11.46 475.841 11.574 475.539 11.803 C 475.237 12.033 475.086 12.324 475.086 12.678 C 475.086 13.012 475.221 13.288 475.492 13.507 C 475.763 13.715 476.179 13.918 476.742 14.116 L 477.351 14.335 C 478.174 14.616 478.804 14.986 479.242 15.444 C 479.69 15.892 479.914 16.496 479.914 17.257 C 479.914 17.871 479.757 18.392 479.445 18.819 C 479.132 19.236 478.726 19.548 478.226 19.757 C 477.737 19.965 477.237 20.069 476.726 20.069 Z" fill-rule="nonzero"/>
    <path fill="#000000" d="M 413.002 26.303 L 414.471 26.303 L 414.471 35.85 L 413.002 35.85 L 413.002 26.303 Z M 416.614 26.303 L 418.583 26.303 L 421.38 33.569 L 421.458 33.569 L 424.255 26.303 L 426.224 26.303 L 426.224 35.85 L 424.786 35.85 L 424.786 30.46 L 424.864 28.757 L 424.786 28.757 L 422.005 35.85 L 420.833 35.85 L 418.052 28.757 L 417.974 28.757 L 418.052 30.46 L 418.052 35.85 L 416.614 35.85 L 416.614 26.303 Z M 428.383 26.303 L 431.664 26.303 C 432.237 26.303 432.758 26.428 433.227 26.678 C 433.706 26.928 434.086 27.277 434.367 27.725 C 434.649 28.163 434.789 28.663 434.789 29.225 C 434.789 29.788 434.649 30.293 434.367 30.741 C 434.086 31.178 433.706 31.522 433.227 31.772 C 432.758 32.022 432.237 32.147 431.664 32.147 L 429.852 32.147 L 429.852 35.85 L 428.383 35.85 L 428.383 26.303 Z M 431.695 30.757 C 432.185 30.757 432.581 30.605 432.883 30.303 C 433.185 29.991 433.336 29.632 433.336 29.225 C 433.336 28.819 433.185 28.465 432.883 28.163 C 432.581 27.85 432.185 27.694 431.695 27.694 L 429.852 27.694 L 429.852 30.757 L 431.695 30.757 Z M 436.287 26.303 L 439.63 26.303 C 440.214 26.303 440.734 26.428 441.193 26.678 C 441.662 26.928 442.031 27.277 442.302 27.725 C 442.573 28.163 442.708 28.663 442.708 29.225 C 442.708 29.861 442.5 30.428 442.083 30.928 C 441.677 31.418 441.162 31.746 440.537 31.913 L 440.521 31.991 L 443.146 35.772 L 443.146 35.85 L 441.458 35.85 L 438.912 32.1 L 437.755 32.1 L 437.755 35.85 L 436.287 35.85 L 436.287 26.303 Z M 439.599 30.757 C 440.057 30.757 440.443 30.611 440.755 30.319 C 441.078 30.027 441.24 29.658 441.24 29.21 C 441.24 28.803 441.094 28.449 440.802 28.147 C 440.51 27.835 440.125 27.678 439.646 27.678 L 437.755 27.678 L 437.755 30.757 L 439.599 30.757 Z M 448.885 36.069 C 447.958 36.069 447.115 35.845 446.354 35.397 C 445.604 34.949 445.01 34.345 444.573 33.585 C 444.146 32.824 443.932 31.991 443.932 31.085 C 443.932 30.168 444.146 29.329 444.573 28.569 C 445.01 27.809 445.604 27.21 446.354 26.772 C 447.115 26.324 447.958 26.1 448.885 26.1 C 449.812 26.1 450.651 26.324 451.401 26.772 C 452.151 27.21 452.74 27.809 453.167 28.569 C 453.594 29.329 453.807 30.168 453.807 31.085 C 453.807 31.991 453.594 32.824 453.167 33.585 C 452.74 34.345 452.151 34.949 451.401 35.397 C 450.651 35.845 449.812 36.069 448.885 36.069 Z M 448.885 34.678 C 449.521 34.678 450.104 34.527 450.635 34.225 C 451.167 33.913 451.583 33.486 451.885 32.944 C 452.198 32.392 452.354 31.772 452.354 31.085 C 452.354 30.387 452.198 29.767 451.885 29.225 C 451.583 28.673 451.167 28.246 450.635 27.944 C 450.104 27.632 449.521 27.475 448.885 27.475 C 448.24 27.475 447.651 27.632 447.12 27.944 C 446.599 28.246 446.182 28.673 445.87 29.225 C 445.568 29.767 445.417 30.387 445.417 31.085 C 445.417 31.772 445.568 32.392 445.87 32.944 C 446.182 33.486 446.599 33.913 447.12 34.225 C 447.651 34.527 448.24 34.678 448.885 34.678 Z M 454.215 26.303 L 455.809 26.303 L 457.965 32.647 L 458.309 33.725 L 458.387 33.725 L 458.746 32.647 L 460.996 26.303 L 462.59 26.303 L 459.121 35.85 L 457.606 35.85 L 454.215 26.303 Z M 463.862 26.303 L 469.643 26.303 L 469.643 27.694 L 465.331 27.694 L 465.331 30.382 L 469.222 30.382 L 469.222 31.772 L 465.331 31.772 L 465.331 34.46 L 469.643 34.46 L 469.643 35.85 L 463.862 35.85 L 463.862 26.303 Z M 471.486 26.303 L 473.455 26.303 L 476.251 33.569 L 476.33 33.569 L 479.126 26.303 L 481.095 26.303 L 481.095 35.85 L 479.658 35.85 L 479.658 30.46 L 479.736 28.757 L 479.658 28.757 L 476.876 35.85 L 475.705 35.85 L 472.923 28.757 L 472.845 28.757 L 472.923 30.46 L 472.923 35.85 L 471.486 35.85 L 471.486 26.303 Z M 483.254 26.303 L 489.036 26.303 L 489.036 27.694 L 484.723 27.694 L 484.723 30.382 L 488.614 30.382 L 488.614 31.772 L 484.723 31.772 L 484.723 34.46 L 489.036 34.46 L 489.036 35.85 L 483.254 35.85 L 483.254 26.303 Z M 490.878 26.303 L 492.613 26.303 L 496.925 33.319 L 497.003 33.319 L 496.925 31.475 L 496.925 26.303 L 498.378 26.303 L 498.378 35.85 L 496.863 35.85 L 492.331 28.475 L 492.253 28.475 L 492.331 30.319 L 492.331 35.85 L 490.878 35.85 L 490.878 26.303 Z M 502.494 27.694 L 499.807 27.694 L 499.807 26.303 L 506.619 26.303 L 506.619 27.694 L 503.947 27.694 L 503.947 35.85 L 502.494 35.85 L 502.494 27.694 Z" fill-rule="nonzero"/>
    <path fill="#ff4e42" d="M 521.877 1.445 L 637.089 1.445 L 637.089 44.657 L 521.877 44.657 L 521.877 1.445 Z" fill-rule="evenodd"/>
    <path fill="#000000" d="M 561.582 18.304 L 564.863 18.304 C 565.436 18.304 565.957 18.429 566.426 18.679 C 566.905 18.929 567.285 19.278 567.566 19.726 C 567.848 20.164 567.988 20.664 567.988 21.226 C 567.988 21.789 567.848 22.294 567.566 22.742 C 567.285 23.179 566.905 23.523 566.426 23.773 C 565.957 24.023 565.436 24.148 564.863 24.148 L 563.051 24.148 L 563.051 27.851 L 561.582 27.851 L 561.582 18.304 Z M 564.895 22.757 C 565.384 22.757 565.78 22.606 566.082 22.304 C 566.384 21.992 566.535 21.632 566.535 21.226 C 566.535 20.82 566.384 20.466 566.082 20.164 C 565.78 19.851 565.384 19.695 564.895 19.695 L 563.051 19.695 L 563.051 22.757 L 564.895 22.757 Z M 573.834 28.07 C 572.907 28.07 572.063 27.846 571.303 27.398 C 570.553 26.95 569.959 26.346 569.522 25.586 C 569.095 24.825 568.881 23.992 568.881 23.086 C 568.881 22.169 569.095 21.33 569.522 20.57 C 569.959 19.809 570.553 19.211 571.303 18.773 C 572.063 18.325 572.907 18.101 573.834 18.101 C 574.761 18.101 575.6 18.325 576.35 18.773 C 577.1 19.211 577.688 19.809 578.116 20.57 C 578.543 21.33 578.756 22.169 578.756 23.086 C 578.756 23.992 578.543 24.825 578.116 25.586 C 577.688 26.346 577.1 26.95 576.35 27.398 C 575.6 27.846 574.761 28.07 573.834 28.07 Z M 573.834 26.679 C 574.47 26.679 575.053 26.528 575.584 26.226 C 576.116 25.914 576.532 25.487 576.834 24.945 C 577.147 24.393 577.303 23.773 577.303 23.086 C 577.303 22.388 577.147 21.768 576.834 21.226 C 576.532 20.674 576.116 20.247 575.584 19.945 C 575.053 19.632 574.47 19.476 573.834 19.476 C 573.188 19.476 572.6 19.632 572.069 19.945 C 571.548 20.247 571.131 20.674 570.819 21.226 C 570.517 21.768 570.366 22.388 570.366 23.086 C 570.366 23.773 570.517 24.393 570.819 24.945 C 571.131 25.487 571.548 25.914 572.069 26.226 C 572.6 26.528 573.188 26.679 573.834 26.679 Z M 584.79 28.07 C 583.863 28.07 583.019 27.846 582.259 27.398 C 581.509 26.95 580.915 26.346 580.477 25.586 C 580.05 24.825 579.837 23.992 579.837 23.086 C 579.837 22.169 580.05 21.33 580.477 20.57 C 580.915 19.809 581.509 19.211 582.259 18.773 C 583.019 18.325 583.863 18.101 584.79 18.101 C 585.717 18.101 586.556 18.325 587.306 18.773 C 588.056 19.211 588.644 19.809 589.071 20.57 C 589.498 21.33 589.712 22.169 589.712 23.086 C 589.712 23.992 589.498 24.825 589.071 25.586 C 588.644 26.346 588.056 26.95 587.306 27.398 C 586.556 27.846 585.717 28.07 584.79 28.07 Z M 584.79 26.679 C 585.425 26.679 586.009 26.528 586.54 26.226 C 587.071 25.914 587.488 25.487 587.79 24.945 C 588.102 24.393 588.259 23.773 588.259 23.086 C 588.259 22.388 588.102 21.768 587.79 21.226 C 587.488 20.674 587.071 20.247 586.54 19.945 C 586.009 19.632 585.425 19.476 584.79 19.476 C 584.144 19.476 583.556 19.632 583.024 19.945 C 582.503 20.247 582.087 20.674 581.774 21.226 C 581.472 21.768 581.321 22.388 581.321 23.086 C 581.321 23.773 581.472 24.393 581.774 24.945 C 582.087 25.487 582.503 25.914 583.024 26.226 C 583.556 26.528 584.144 26.679 584.79 26.679 Z M 591.41 18.304 L 594.754 18.304 C 595.337 18.304 595.858 18.429 596.316 18.679 C 596.785 18.929 597.155 19.278 597.426 19.726 C 597.697 20.164 597.832 20.664 597.832 21.226 C 597.832 21.862 597.624 22.429 597.207 22.929 C 596.801 23.419 596.285 23.747 595.66 23.914 L 595.645 23.992 L 598.27 27.773 L 598.27 27.851 L 596.582 27.851 L 594.035 24.101 L 592.879 24.101 L 592.879 27.851 L 591.41 27.851 L 591.41 18.304 Z M 594.723 22.757 C 595.181 22.757 595.566 22.612 595.879 22.32 C 596.202 22.028 596.363 21.658 596.363 21.211 C 596.363 20.804 596.217 20.45 595.926 20.148 C 595.634 19.836 595.249 19.679 594.77 19.679 L 592.879 19.679 L 592.879 22.757 L 594.723 22.757 Z" fill-rule="nonzero"/>
    <path fill="#000000" fill-opacity="0.0" d="M 473.852 68.644 L 569.852 68.644 L 569.852 97.431 L 473.852 97.431 L 473.852 68.644 Z" fill-rule="evenodd"/>
    <path fill="#434343" d="M 496.418 89.459 C 495.512 89.459 494.678 89.203 493.918 88.693 C 493.168 88.172 492.647 87.417 492.356 86.427 L 494.106 85.709 C 494.272 86.334 494.553 86.813 494.949 87.146 C 495.345 87.479 495.835 87.646 496.418 87.646 C 497.001 87.646 497.507 87.469 497.934 87.115 C 498.361 86.761 498.574 86.302 498.574 85.74 C 498.574 85.188 498.35 84.735 497.902 84.38 C 497.465 84.016 496.908 83.834 496.231 83.834 L 495.199 83.834 L 495.199 82.13 L 496.137 82.13 C 496.71 82.13 497.189 81.979 497.574 81.677 C 497.97 81.365 498.168 80.932 498.168 80.38 C 498.168 79.901 497.991 79.516 497.637 79.224 C 497.283 78.932 496.84 78.787 496.309 78.787 C 495.777 78.787 495.35 78.927 495.027 79.209 C 494.715 79.49 494.491 79.839 494.356 80.255 L 492.652 79.537 C 492.882 78.88 493.303 78.302 493.918 77.802 C 494.543 77.302 495.34 77.052 496.309 77.052 C 497.027 77.052 497.673 77.193 498.246 77.474 C 498.819 77.745 499.262 78.125 499.574 78.615 C 499.897 79.104 500.059 79.651 500.059 80.255 C 500.059 80.88 499.908 81.412 499.606 81.849 C 499.303 82.287 498.934 82.62 498.496 82.849 L 498.496 82.943 C 499.069 83.182 499.538 83.552 499.902 84.052 C 500.277 84.542 500.465 85.136 500.465 85.834 C 500.465 86.531 500.288 87.156 499.934 87.709 C 499.59 88.25 499.111 88.677 498.496 88.99 C 497.882 89.302 497.189 89.459 496.418 89.459 Z M 506.952 89.459 C 505.983 89.459 505.129 89.188 504.389 88.646 C 503.66 88.094 503.092 87.349 502.686 86.412 C 502.29 85.474 502.092 84.422 502.092 83.255 C 502.092 82.089 502.29 81.037 502.686 80.099 C 503.092 79.151 503.66 78.406 504.389 77.865 C 505.129 77.323 505.983 77.052 506.952 77.052 C 507.921 77.052 508.775 77.323 509.514 77.865 C 510.254 78.406 510.822 79.151 511.217 80.099 C 511.613 81.037 511.811 82.089 511.811 83.255 C 511.811 84.422 511.613 85.474 511.217 86.412 C 510.822 87.349 510.254 88.094 509.514 88.646 C 508.775 89.188 507.921 89.459 506.952 89.459 Z M 506.952 87.693 C 507.566 87.693 508.098 87.5 508.546 87.115 C 508.993 86.719 509.337 86.188 509.577 85.521 C 509.816 84.854 509.936 84.099 509.936 83.255 C 509.936 82.412 509.816 81.651 509.577 80.974 C 509.337 80.297 508.993 79.771 508.546 79.396 C 508.098 79.011 507.566 78.818 506.952 78.818 C 506.348 78.818 505.822 79.011 505.374 79.396 C 504.936 79.771 504.598 80.297 504.358 80.974 C 504.118 81.651 503.999 82.412 503.999 83.255 C 503.999 84.099 504.118 84.854 504.358 85.521 C 504.598 86.188 504.936 86.719 505.374 87.115 C 505.822 87.5 506.348 87.693 506.952 87.693 Z M 518.388 89.459 C 517.42 89.459 516.565 89.188 515.826 88.646 C 515.097 88.094 514.529 87.349 514.123 86.412 C 513.727 85.474 513.529 84.422 513.529 83.255 C 513.529 82.089 513.727 81.037 514.123 80.099 C 514.529 79.151 515.097 78.406 515.826 77.865 C 516.565 77.323 517.42 77.052 518.388 77.052 C 519.357 77.052 520.211 77.323 520.951 77.865 C 521.69 78.406 522.258 79.151 522.654 80.099 C 523.05 81.037 523.248 82.089 523.248 83.255 C 523.248 84.422 523.05 85.474 522.654 86.412 C 522.258 87.349 521.69 88.094 520.951 88.646 C 520.211 89.188 519.357 89.459 518.388 89.459 Z M 518.388 87.693 C 519.003 87.693 519.534 87.5 519.982 87.115 C 520.43 86.719 520.774 86.188 521.013 85.521 C 521.253 84.854 521.373 84.099 521.373 83.255 C 521.373 82.412 521.253 81.651 521.013 80.974 C 520.774 80.297 520.43 79.771 519.982 79.396 C 519.534 79.011 519.003 78.818 518.388 78.818 C 517.784 78.818 517.258 79.011 516.81 79.396 C 516.373 79.771 516.034 80.297 515.795 80.974 C 515.555 81.651 515.435 82.412 515.435 83.255 C 515.435 84.099 515.555 84.854 515.795 85.521 C 516.034 86.188 516.373 86.719 516.81 87.115 C 517.258 87.5 517.784 87.693 518.388 87.693 Z M 524.122 89.177 Z M 529.253 80.334 L 531.019 80.334 L 531.019 81.552 L 531.128 81.552 C 531.388 81.115 531.758 80.761 532.237 80.49 C 532.727 80.209 533.263 80.068 533.847 80.068 C 534.482 80.068 535.034 80.219 535.503 80.521 C 535.972 80.813 536.31 81.209 536.519 81.709 C 536.821 81.209 537.222 80.813 537.722 80.521 C 538.232 80.219 538.826 80.068 539.503 80.068 C 540.524 80.068 541.295 80.375 541.815 80.99 C 542.336 81.604 542.597 82.443 542.597 83.505 L 542.597 89.177 L 540.737 89.177 L 540.737 83.818 C 540.737 82.453 540.159 81.771 539.003 81.771 C 538.367 81.771 537.852 82.026 537.456 82.537 C 537.06 83.047 536.862 83.682 536.862 84.443 L 536.862 89.177 L 535.003 89.177 L 535.003 83.818 C 535.003 82.453 534.409 81.771 533.222 81.771 C 532.607 81.771 532.102 82.031 531.706 82.552 C 531.321 83.063 531.128 83.698 531.128 84.459 L 531.128 89.177 L 529.253 89.177 L 529.253 80.334 Z M 547.859 89.459 C 546.859 89.459 546.031 89.24 545.374 88.802 C 544.718 88.354 544.26 87.781 543.999 87.084 L 545.671 86.349 C 545.88 86.828 546.177 87.193 546.562 87.443 C 546.947 87.682 547.38 87.802 547.859 87.802 C 548.359 87.802 548.776 87.714 549.109 87.537 C 549.442 87.36 549.609 87.094 549.609 86.74 C 549.609 86.417 549.468 86.162 549.187 85.974 C 548.906 85.776 548.463 85.61 547.859 85.474 L 546.796 85.224 C 546.098 85.057 545.515 84.755 545.046 84.318 C 544.588 83.87 544.359 83.313 544.359 82.646 C 544.359 82.136 544.51 81.688 544.812 81.302 C 545.124 80.906 545.536 80.604 546.046 80.396 C 546.567 80.177 547.13 80.068 547.734 80.068 C 548.567 80.068 549.291 80.229 549.906 80.552 C 550.531 80.875 550.984 81.349 551.265 81.974 L 549.64 82.693 C 549.286 81.995 548.656 81.646 547.749 81.646 C 547.312 81.646 546.947 81.74 546.656 81.927 C 546.364 82.104 546.218 82.334 546.218 82.615 C 546.218 83.136 546.666 83.511 547.562 83.74 L 548.843 84.052 C 549.718 84.271 550.374 84.599 550.812 85.037 C 551.26 85.474 551.484 86.016 551.484 86.662 C 551.484 87.214 551.322 87.703 550.999 88.13 C 550.687 88.547 550.249 88.875 549.687 89.115 C 549.135 89.344 548.526 89.459 547.859 89.459 Z" fill-rule="nonzero"/>
    <path fill="#000000" fill-opacity="0.0" d="M 349.052 68.644 L 445.052 68.644 L 445.052 97.431 L 349.052 97.431 L 349.052 68.644 Z" fill-rule="evenodd"/>
    <path fill="#434343" d="M 371.812 79.834 L 369.874 81.224 L 368.921 79.787 L 372.343 77.318 L 373.687 77.318 L 373.687 89.177 L 371.812 89.177 L 371.812 79.834 Z M 380.896 89.459 C 379.927 89.459 379.073 89.188 378.333 88.646 C 377.604 88.094 377.036 87.349 376.63 86.412 C 376.234 85.474 376.036 84.422 376.036 83.255 C 376.036 82.089 376.234 81.037 376.63 80.099 C 377.036 79.151 377.604 78.406 378.333 77.865 C 379.073 77.323 379.927 77.052 380.896 77.052 C 381.864 77.052 382.718 77.323 383.458 77.865 C 384.198 78.406 384.765 79.151 385.161 80.099 C 385.557 81.037 385.755 82.089 385.755 83.255 C 385.755 84.422 385.557 85.474 385.161 86.412 C 384.765 87.349 384.198 88.094 383.458 88.646 C 382.718 89.188 381.864 89.459 380.896 89.459 Z M 380.896 87.693 C 381.51 87.693 382.041 87.5 382.489 87.115 C 382.937 86.719 383.281 86.188 383.521 85.521 C 383.76 84.854 383.88 84.099 383.88 83.255 C 383.88 82.412 383.76 81.651 383.521 80.974 C 383.281 80.297 382.937 79.771 382.489 79.396 C 382.041 79.011 381.51 78.818 380.896 78.818 C 380.291 78.818 379.765 79.011 379.317 79.396 C 378.88 79.771 378.541 80.297 378.302 80.974 C 378.062 81.651 377.942 82.412 377.942 83.255 C 377.942 84.099 378.062 84.854 378.302 85.521 C 378.541 86.188 378.88 86.719 379.317 87.115 C 379.765 87.5 380.291 87.693 380.896 87.693 Z M 392.332 89.459 C 391.363 89.459 390.509 89.188 389.77 88.646 C 389.04 88.094 388.473 87.349 388.066 86.412 C 387.671 85.474 387.473 84.422 387.473 83.255 C 387.473 82.089 387.671 81.037 388.066 80.099 C 388.473 79.151 389.04 78.406 389.77 77.865 C 390.509 77.323 391.363 77.052 392.332 77.052 C 393.301 77.052 394.155 77.323 394.895 77.865 C 395.634 78.406 396.202 79.151 396.598 80.099 C 396.994 81.037 397.191 82.089 397.191 83.255 C 397.191 84.422 396.994 85.474 396.598 86.412 C 396.202 87.349 395.634 88.094 394.895 88.646 C 394.155 89.188 393.301 89.459 392.332 89.459 Z M 392.332 87.693 C 392.947 87.693 393.478 87.5 393.926 87.115 C 394.374 86.719 394.717 86.188 394.957 85.521 C 395.197 84.854 395.316 84.099 395.316 83.255 C 395.316 82.412 395.197 81.651 394.957 80.974 C 394.717 80.297 394.374 79.771 393.926 79.396 C 393.478 79.011 392.947 78.818 392.332 78.818 C 391.728 78.818 391.202 79.011 390.754 79.396 C 390.316 79.771 389.978 80.297 389.738 80.974 C 389.499 81.651 389.379 82.412 389.379 83.255 C 389.379 84.099 389.499 84.854 389.738 85.521 C 389.978 86.188 390.316 86.719 390.754 87.115 C 391.202 87.5 391.728 87.693 392.332 87.693 Z M 398.065 89.177 Z M 403.197 80.334 L 404.962 80.334 L 404.962 81.552 L 405.072 81.552 C 405.332 81.115 405.702 80.761 406.181 80.49 C 406.671 80.209 407.207 80.068 407.79 80.068 C 408.426 80.068 408.978 80.219 409.447 80.521 C 409.915 80.813 410.254 81.209 410.462 81.709 C 410.764 81.209 411.165 80.813 411.665 80.521 C 412.176 80.219 412.77 80.068 413.447 80.068 C 414.467 80.068 415.238 80.375 415.759 80.99 C 416.28 81.604 416.54 82.443 416.54 83.505 L 416.54 89.177 L 414.681 89.177 L 414.681 83.818 C 414.681 82.453 414.103 81.771 412.947 81.771 C 412.311 81.771 411.796 82.026 411.4 82.537 C 411.004 83.047 410.806 83.682 410.806 84.443 L 410.806 89.177 L 408.947 89.177 L 408.947 83.818 C 408.947 82.453 408.353 81.771 407.165 81.771 C 406.551 81.771 406.046 82.031 405.65 82.552 C 405.264 83.063 405.072 83.698 405.072 84.459 L 405.072 89.177 L 403.197 89.177 L 403.197 80.334 Z M 421.803 89.459 C 420.803 89.459 419.974 89.24 419.318 88.802 C 418.662 88.354 418.204 87.781 417.943 87.084 L 419.615 86.349 C 419.823 86.828 420.12 87.193 420.506 87.443 C 420.891 87.682 421.323 87.802 421.803 87.802 C 422.303 87.802 422.719 87.714 423.053 87.537 C 423.386 87.36 423.553 87.094 423.553 86.74 C 423.553 86.417 423.412 86.162 423.131 85.974 C 422.849 85.776 422.407 85.61 421.803 85.474 L 420.74 85.224 C 420.042 85.057 419.459 84.755 418.99 84.318 C 418.532 83.87 418.303 83.313 418.303 82.646 C 418.303 82.136 418.454 81.688 418.756 81.302 C 419.068 80.906 419.48 80.604 419.99 80.396 C 420.511 80.177 421.073 80.068 421.678 80.068 C 422.511 80.068 423.235 80.229 423.849 80.552 C 424.474 80.875 424.928 81.349 425.209 81.974 L 423.584 82.693 C 423.23 81.995 422.599 81.646 421.693 81.646 C 421.256 81.646 420.891 81.74 420.599 81.927 C 420.308 82.104 420.162 82.334 420.162 82.615 C 420.162 83.136 420.61 83.511 421.506 83.74 L 422.787 84.052 C 423.662 84.271 424.318 84.599 424.756 85.037 C 425.204 85.474 425.428 86.016 425.428 86.662 C 425.428 87.214 425.266 87.703 424.943 88.13 C 424.631 88.547 424.193 88.875 423.631 89.115 C 423.079 89.344 422.469 89.459 421.803 89.459 Z" fill-rule="nonzero"/>
    <path fill="#000000" fill-opacity="0.0" d="M 396.737 69.591 L 396.737 40.804" fill-rule="evenodd"/>
    <path stroke="#434343" stroke-width="2.0" stroke-linejoin="round" stroke-linecap="butt" d="M 396.737 69.591 L 396.737 48.384" fill-rule="evenodd"/>
    <path fill="#434343" stroke="#434343" stroke-width="2.0" stroke-linecap="butt" d="M 396.737 41.804 C 398.554 41.804 400.027 43.277 400.027 45.094 C 400.027 46.911 398.554 48.384 396.737 48.384 C 394.92 48.384 393.447 46.911 393.447 45.094 C 393.447 43.277 394.92 41.804 396.737 41.804 Z" fill-rule="nonzero"/>
    <path fill="#000000" fill-opacity="0.0" d="M -49.348 73.444 L 219.439 73.444 L 219.439 111.837 L -49.348 111.837 L -49.348 73.444 Z" fill-rule="evenodd"/>
    <path fill="#666666" d="M 3.701 72.855 L 12.529 72.855 L 12.529 74.574 L 5.513 74.574 L 5.513 79.808 L 11.857 79.808 L 11.857 81.511 L 5.513 81.511 L 5.513 88.121 L 3.701 88.121 L 3.701 72.855 Z M 15.516 75.246 C 15.162 75.246 14.854 75.116 14.594 74.855 C 14.344 74.595 14.219 74.288 14.219 73.933 C 14.219 73.569 14.344 73.261 14.594 73.011 C 14.854 72.761 15.162 72.636 15.516 72.636 C 15.891 72.636 16.203 72.761 16.453 73.011 C 16.703 73.261 16.828 73.569 16.828 73.933 C 16.828 74.288 16.703 74.595 16.453 74.855 C 16.203 75.116 15.891 75.246 15.516 75.246 Z M 14.625 77.246 L 16.438 77.246 L 16.438 88.121 L 14.625 88.121 L 14.625 77.246 Z M 19.274 77.246 L 21.008 77.246 L 21.008 78.996 L 21.086 78.996 C 21.294 78.392 21.706 77.897 22.32 77.511 C 22.935 77.116 23.576 76.918 24.242 76.918 C 24.742 76.918 25.169 76.991 25.524 77.136 L 25.524 79.105 C 25.065 78.876 24.555 78.761 23.992 78.761 C 23.461 78.761 22.977 78.913 22.539 79.215 C 22.102 79.506 21.748 79.907 21.477 80.418 C 21.216 80.918 21.086 81.459 21.086 82.043 L 21.086 88.121 L 19.274 88.121 L 19.274 77.246 Z M 30.642 88.465 C 29.475 88.465 28.501 88.194 27.72 87.652 C 26.939 87.1 26.381 86.397 26.048 85.543 L 27.673 84.808 C 27.944 85.465 28.345 85.97 28.876 86.324 C 29.418 86.678 30.006 86.855 30.642 86.855 C 31.319 86.855 31.897 86.72 32.376 86.449 C 32.866 86.168 33.111 85.772 33.111 85.261 C 33.111 84.803 32.918 84.439 32.532 84.168 C 32.157 83.886 31.553 83.647 30.72 83.449 L 29.407 83.105 C 28.543 82.897 27.829 82.538 27.267 82.027 C 26.715 81.506 26.439 80.845 26.439 80.043 C 26.439 79.418 26.626 78.866 27.001 78.386 C 27.376 77.907 27.876 77.543 28.501 77.293 C 29.137 77.032 29.814 76.902 30.532 76.902 C 31.491 76.902 32.34 77.11 33.079 77.527 C 33.829 77.933 34.361 78.506 34.673 79.246 L 33.095 79.98 C 32.616 79.011 31.756 78.527 30.517 78.527 C 29.913 78.527 29.387 78.668 28.939 78.949 C 28.491 79.22 28.267 79.569 28.267 79.996 C 28.267 80.392 28.423 80.715 28.736 80.965 C 29.059 81.215 29.532 81.418 30.157 81.574 L 31.736 81.98 C 32.798 82.251 33.6 82.652 34.142 83.183 C 34.684 83.715 34.954 84.366 34.954 85.136 C 34.954 85.803 34.762 86.392 34.376 86.902 C 33.991 87.402 33.47 87.788 32.814 88.058 C 32.157 88.329 31.434 88.465 30.642 88.465 Z M 41.014 88.293 C 40.566 88.293 40.155 88.225 39.78 88.09 C 39.405 87.944 39.087 87.746 38.827 87.496 C 38.264 86.965 37.983 86.22 37.983 85.261 L 37.983 78.886 L 36.077 78.886 L 36.077 77.246 L 37.983 77.246 L 37.983 74.168 L 39.795 74.168 L 39.795 77.246 L 42.452 77.246 L 42.452 78.886 L 39.795 78.886 L 39.795 84.808 C 39.795 85.413 39.91 85.855 40.139 86.136 C 40.41 86.449 40.801 86.605 41.311 86.605 C 41.748 86.605 42.144 86.485 42.498 86.246 L 42.498 88.011 C 42.29 88.116 42.071 88.189 41.842 88.23 C 41.623 88.272 41.347 88.293 41.014 88.293 Z M 43.289 88.121 Z M 49.94 72.855 L 51.753 72.855 L 51.753 88.121 L 49.94 88.121 L 49.94 72.855 Z M 54.806 77.246 L 56.541 77.246 L 56.541 78.84 L 56.619 78.84 C 56.921 78.298 57.395 77.84 58.041 77.465 C 58.697 77.09 59.395 76.902 60.134 76.902 C 61.447 76.902 62.447 77.282 63.134 78.043 C 63.822 78.803 64.166 79.84 64.166 81.152 L 64.166 88.121 L 62.353 88.121 L 62.353 81.418 C 62.353 80.407 62.108 79.678 61.619 79.23 C 61.14 78.772 60.483 78.543 59.65 78.543 C 59.067 78.543 58.541 78.709 58.072 79.043 C 57.614 79.366 57.254 79.793 56.994 80.324 C 56.744 80.855 56.619 81.413 56.619 81.996 L 56.619 88.121 L 54.806 88.121 L 54.806 77.246 Z M 66.693 77.246 L 68.412 77.246 L 68.412 78.871 L 68.506 78.871 C 68.829 78.308 69.318 77.84 69.974 77.465 C 70.641 77.09 71.386 76.902 72.209 76.902 C 73.188 76.902 74.073 77.152 74.865 77.652 C 75.657 78.152 76.277 78.845 76.725 79.73 C 77.183 80.605 77.412 81.59 77.412 82.683 C 77.412 83.788 77.183 84.777 76.725 85.652 C 76.277 86.527 75.657 87.215 74.865 87.715 C 74.073 88.215 73.188 88.465 72.209 88.465 C 71.386 88.465 70.641 88.277 69.974 87.902 C 69.318 87.517 68.829 87.058 68.506 86.527 L 68.412 86.527 L 68.506 88.011 L 68.506 92.73 L 66.693 92.73 L 66.693 77.246 Z M 72.021 86.824 C 72.646 86.824 73.235 86.652 73.787 86.308 C 74.339 85.965 74.777 85.48 75.1 84.855 C 75.433 84.23 75.6 83.506 75.6 82.683 C 75.6 81.86 75.433 81.136 75.1 80.511 C 74.777 79.886 74.339 79.402 73.787 79.058 C 73.235 78.715 72.646 78.543 72.021 78.543 C 71.376 78.543 70.777 78.715 70.224 79.058 C 69.683 79.402 69.245 79.886 68.912 80.511 C 68.579 81.136 68.412 81.86 68.412 82.683 C 68.412 83.506 68.579 84.23 68.912 84.855 C 69.245 85.48 69.683 85.965 70.224 86.308 C 70.777 86.652 71.376 86.824 72.021 86.824 Z M 83.372 88.465 C 82.06 88.465 81.06 88.079 80.372 87.308 C 79.685 86.538 79.341 85.465 79.341 84.09 L 79.341 77.246 L 81.153 77.246 L 81.153 83.808 C 81.153 84.85 81.388 85.616 81.856 86.105 C 82.325 86.584 82.955 86.824 83.747 86.824 C 84.362 86.824 84.903 86.663 85.372 86.34 C 85.851 86.006 86.221 85.579 86.481 85.058 C 86.752 84.527 86.888 83.97 86.888 83.386 L 86.888 77.246 L 88.7 77.246 L 88.7 88.121 L 86.966 88.121 L 86.966 86.543 L 86.888 86.543 C 86.586 87.084 86.106 87.543 85.45 87.918 C 84.804 88.282 84.112 88.465 83.372 88.465 Z M 95.678 88.293 C 95.23 88.293 94.819 88.225 94.444 88.09 C 94.069 87.944 93.751 87.746 93.491 87.496 C 92.928 86.965 92.647 86.22 92.647 85.261 L 92.647 78.886 L 90.741 78.886 L 90.741 77.246 L 92.647 77.246 L 92.647 74.168 L 94.46 74.168 L 94.46 77.246 L 97.116 77.246 L 97.116 78.886 L 94.46 78.886 L 94.46 84.808 C 94.46 85.413 94.574 85.855 94.803 86.136 C 95.074 86.449 95.465 86.605 95.975 86.605 C 96.413 86.605 96.808 86.485 97.163 86.246 L 97.163 88.011 C 96.954 88.116 96.736 88.189 96.506 88.23 C 96.288 88.272 96.012 88.293 95.678 88.293 Z M 97.953 88.121 Z M 104.604 72.855 L 109.214 72.855 C 110.776 72.855 112.141 73.178 113.308 73.824 C 114.474 74.47 115.37 75.371 115.995 76.527 C 116.62 77.673 116.933 78.991 116.933 80.48 C 116.933 81.98 116.62 83.308 115.995 84.465 C 115.37 85.61 114.474 86.506 113.308 87.152 C 112.141 87.798 110.776 88.121 109.214 88.121 L 104.604 88.121 L 104.604 72.855 Z M 109.214 86.386 C 111.016 86.386 112.448 85.871 113.511 84.84 C 114.573 83.798 115.104 82.345 115.104 80.48 C 115.104 78.626 114.573 77.178 113.511 76.136 C 112.448 75.095 111.016 74.574 109.214 74.574 L 106.417 74.574 L 106.417 86.386 L 109.214 86.386 Z M 123.763 88.465 C 122.721 88.465 121.789 88.215 120.966 87.715 C 120.143 87.215 119.497 86.527 119.028 85.652 C 118.57 84.777 118.341 83.793 118.341 82.699 C 118.341 81.668 118.554 80.709 118.981 79.824 C 119.419 78.928 120.039 78.22 120.841 77.699 C 121.653 77.168 122.575 76.902 123.606 76.902 C 124.679 76.902 125.606 77.142 126.388 77.621 C 127.169 78.09 127.768 78.746 128.184 79.59 C 128.601 80.433 128.809 81.392 128.809 82.465 C 128.809 82.642 128.799 82.829 128.778 83.027 L 120.153 83.027 C 120.195 83.85 120.393 84.548 120.747 85.121 C 121.111 85.683 121.565 86.11 122.106 86.402 C 122.658 86.683 123.231 86.824 123.825 86.824 C 125.242 86.824 126.315 86.168 127.044 84.855 L 128.575 85.605 C 128.127 86.47 127.497 87.163 126.684 87.683 C 125.872 88.204 124.898 88.465 123.763 88.465 Z M 126.903 81.527 C 126.872 81.079 126.742 80.626 126.513 80.168 C 126.283 79.709 125.924 79.324 125.434 79.011 C 124.955 78.699 124.346 78.543 123.606 78.543 C 122.752 78.543 122.028 78.819 121.434 79.371 C 120.841 79.913 120.45 80.631 120.263 81.527 L 126.903 81.527 Z M 130.927 72.855 L 132.739 72.855 L 132.739 88.121 L 130.927 88.121 L 130.927 72.855 Z M 138.789 88.465 C 137.997 88.465 137.289 88.308 136.664 87.996 C 136.039 87.683 135.555 87.256 135.211 86.715 C 134.867 86.163 134.695 85.538 134.695 84.84 C 134.695 83.683 135.127 82.782 135.992 82.136 C 136.867 81.491 137.966 81.168 139.289 81.168 C 139.945 81.168 140.555 81.241 141.117 81.386 C 141.68 81.522 142.107 81.683 142.398 81.871 L 142.398 81.215 C 142.398 80.402 142.112 79.751 141.539 79.261 C 140.976 78.772 140.263 78.527 139.398 78.527 C 138.794 78.527 138.232 78.657 137.711 78.918 C 137.2 79.178 136.794 79.543 136.492 80.011 L 135.133 78.996 C 135.56 78.34 136.148 77.829 136.898 77.465 C 137.648 77.09 138.482 76.902 139.398 76.902 C 140.877 76.902 142.034 77.293 142.867 78.074 C 143.711 78.845 144.133 79.897 144.133 81.23 L 144.133 88.121 L 142.398 88.121 L 142.398 86.558 L 142.32 86.558 C 142.008 87.09 141.539 87.543 140.914 87.918 C 140.289 88.282 139.581 88.465 138.789 88.465 Z M 138.961 86.855 C 139.575 86.855 140.143 86.699 140.664 86.386 C 141.195 86.074 141.617 85.657 141.93 85.136 C 142.242 84.605 142.398 84.027 142.398 83.402 C 142.055 83.173 141.633 82.991 141.133 82.855 C 140.643 82.709 140.122 82.636 139.57 82.636 C 138.57 82.636 137.815 82.845 137.305 83.261 C 136.805 83.668 136.555 84.199 136.555 84.855 C 136.555 85.449 136.784 85.933 137.242 86.308 C 137.7 86.673 138.273 86.855 138.961 86.855 Z M 149.76 87.433 L 145.26 77.246 L 147.229 77.246 L 150.635 85.324 L 150.682 85.324 L 153.963 77.246 L 155.916 77.246 L 149.198 92.73 L 147.323 92.73 L 149.76 87.433 Z" fill-rule="nonzero"/>
    <path fill="#000000" fill-opacity="0.0" d="M 521.852 69.471 L 521.852 40.904" fill-rule="evenodd"/>
    <path stroke="#434343" stroke-width="2.0" stroke-linejoin="round" stroke-linecap="butt" d="M 521.852 69.471 L 521.852 48.484" fill-rule="evenodd"/>
    <path fill="#434343" stroke="#434343" stroke-width="2.0" stroke-linecap="butt" d="M 521.852 41.904 C 523.669 41.904 525.142 43.377 525.142 45.194 C 525.142 47.011 523.669 48.484 521.852 48.484 C 520.035 48.484 518.562 47.011 518.562 45.194 C 518.562 43.377 520.035 41.904 521.852 41.904 Z" fill-rule="nonzero"/>
  </g>
</svg>