<?xml version="1.0" encoding="utf-8"?>
<svg version="1.1" viewBox="0 -0.511 655.663 92.429" fill="none" stroke="none" stroke-linecap="square" stroke-miterlimit="10" xmlns="http://www.w3.org/2000/svg">
  <clipPath id="p.0">
    <path d="m0 0l768.0 0l0 192.0l-768.0 0l0 -192.0z" clip-rule="nonzero"/>
  </clipPath>
  <g clip-path="url(#p.0)">
    <path fill="#000000" fill-opacity="0.0" d="M -62.296 -56.169 L 705.704 -56.169 L 705.704 135.831 L -62.296 135.831 L -62.296 -56.169 Z" fill-rule="evenodd"/>
    <path fill="#000000" fill-opacity="0.0" d="M -33.496 -36.969 L 225.717 -36.969 L 225.717 78.244 L -33.496 78.244 L -33.496 -36.969 Z" fill-rule="evenodd"/>
    <path fill="#2979ff" d="M 49.163 5.658 L 59.376 5.658 L 59.376 39.348 L 82.316 39.348 L 82.316 46.677 L 49.163 46.677 L 49.163 5.658 Z M 115.397 47.592 C 110.149 47.592 105.353 46.646 101.007 44.757 C 96.671 42.867 93.254 40.29 90.757 37.026 C 88.261 33.757 87.012 30.135 87.012 26.163 C 87.012 22.19 88.261 18.572 90.757 15.308 C 93.254 12.045 96.671 9.468 101.007 7.578 C 105.353 5.688 110.149 4.743 115.397 4.743 C 123.569 4.743 130.329 6.975 135.675 11.439 L 128.493 16.717 C 125.011 13.621 120.67 12.073 115.471 12.073 C 112.087 12.073 109.007 12.657 106.231 13.826 C 103.455 14.989 101.271 16.639 99.677 18.778 C 98.092 20.916 97.299 23.378 97.299 26.163 C 97.299 28.954 98.092 31.418 99.677 33.557 C 101.271 35.696 103.455 37.35 106.231 38.518 C 109.007 39.681 112.087 40.262 115.471 40.262 C 121.171 40.262 125.939 38.465 129.774 34.872 L 137.043 40.085 C 134.365 42.534 131.195 44.399 127.532 45.68 C 123.877 46.954 119.832 47.592 115.397 47.592 Z M 146.504 5.658 L 165.576 5.658 C 169.009 5.658 172.138 6.201 174.963 7.289 C 177.788 8.377 180.006 9.906 181.616 11.877 C 183.234 13.841 184.043 16.083 184.043 18.6 C 184.043 21.124 183.234 23.381 181.616 25.37 C 180.006 27.353 177.788 28.889 174.963 29.977 C 172.138 31.064 169.009 31.608 165.576 31.608 L 156.717 31.608 L 156.717 46.677 L 146.504 46.677 L 146.504 5.658 Z M 165.883 24.279 C 168.405 24.279 170.384 23.726 171.822 22.62 C 173.259 21.507 173.977 20.167 173.977 18.6 C 173.977 17.04 173.259 15.716 171.822 14.627 C 170.384 13.533 168.405 12.987 165.883 12.987 L 156.717 12.987 L 156.717 24.279 L 165.883 24.279 Z" fill-rule="nonzero" style=""/>
    <path fill="#0cce6b" d="M 297.704 1.431 L 412.917 1.431 L 412.917 44.644 L 297.704 44.644 L 297.704 1.431 Z" fill-rule="evenodd"/>
    <path fill="#000000" d="M 339.626 28.056 C 338.719 28.056 337.886 27.838 337.126 27.4 C 336.365 26.963 335.756 26.364 335.298 25.603 C 334.85 24.843 334.626 23.999 334.626 23.072 C 334.626 22.135 334.85 21.286 335.298 20.525 C 335.756 19.765 336.365 19.171 337.126 18.744 C 337.886 18.306 338.719 18.088 339.626 18.088 C 340.355 18.088 341.027 18.218 341.641 18.478 C 342.256 18.728 342.777 19.082 343.204 19.541 L 342.188 20.556 C 341.542 19.827 340.688 19.463 339.626 19.463 C 339.011 19.463 338.428 19.614 337.876 19.916 C 337.334 20.207 336.902 20.629 336.579 21.181 C 336.266 21.734 336.11 22.364 336.11 23.072 C 336.11 23.78 336.272 24.411 336.594 24.963 C 336.917 25.504 337.35 25.926 337.891 26.228 C 338.433 26.52 339.016 26.666 339.641 26.666 C 340.652 26.666 341.469 26.348 342.094 25.713 C 342.303 25.525 342.475 25.28 342.61 24.978 C 342.746 24.676 342.839 24.343 342.891 23.978 L 339.61 23.978 L 339.61 22.681 L 344.251 22.681 C 344.303 22.984 344.329 23.239 344.329 23.447 C 344.329 24.051 344.235 24.629 344.048 25.181 C 343.86 25.723 343.563 26.202 343.157 26.619 C 342.73 27.088 342.219 27.447 341.626 27.697 C 341.032 27.937 340.365 28.056 339.626 28.056 Z M 350.495 28.056 C 349.567 28.056 348.724 27.832 347.963 27.385 C 347.213 26.937 346.62 26.332 346.182 25.572 C 345.755 24.812 345.541 23.978 345.541 23.072 C 345.541 22.155 345.755 21.317 346.182 20.556 C 346.62 19.796 347.213 19.197 347.963 18.76 C 348.724 18.312 349.567 18.088 350.495 18.088 C 351.422 18.088 352.26 18.312 353.01 18.76 C 353.76 19.197 354.349 19.796 354.776 20.556 C 355.203 21.317 355.416 22.155 355.416 23.072 C 355.416 23.978 355.203 24.812 354.776 25.572 C 354.349 26.332 353.76 26.937 353.01 27.385 C 352.26 27.832 351.422 28.056 350.495 28.056 Z M 350.495 26.666 C 351.13 26.666 351.713 26.515 352.245 26.213 C 352.776 25.9 353.192 25.473 353.495 24.931 C 353.807 24.379 353.963 23.76 353.963 23.072 C 353.963 22.374 353.807 21.754 353.495 21.213 C 353.192 20.661 352.776 20.234 352.245 19.931 C 351.713 19.619 351.13 19.463 350.495 19.463 C 349.849 19.463 349.26 19.619 348.729 19.931 C 348.208 20.234 347.791 20.661 347.479 21.213 C 347.177 21.754 347.026 22.374 347.026 23.072 C 347.026 23.76 347.177 24.379 347.479 24.931 C 347.791 25.473 348.208 25.9 348.729 26.213 C 349.26 26.515 349.849 26.666 350.495 26.666 Z M 361.45 28.056 C 360.523 28.056 359.679 27.832 358.919 27.385 C 358.169 26.937 357.575 26.332 357.138 25.572 C 356.711 24.812 356.497 23.978 356.497 23.072 C 356.497 22.155 356.711 21.317 357.138 20.556 C 357.575 19.796 358.169 19.197 358.919 18.76 C 359.679 18.312 360.523 18.088 361.45 18.088 C 362.377 18.088 363.216 18.312 363.966 18.76 C 364.716 19.197 365.304 19.796 365.731 20.556 C 366.158 21.317 366.372 22.155 366.372 23.072 C 366.372 23.978 366.158 24.812 365.731 25.572 C 365.304 26.332 364.716 26.937 363.966 27.385 C 363.216 27.832 362.377 28.056 361.45 28.056 Z M 361.45 26.666 C 362.086 26.666 362.669 26.515 363.2 26.213 C 363.731 25.9 364.148 25.473 364.45 24.931 C 364.763 24.379 364.919 23.76 364.919 23.072 C 364.919 22.374 364.763 21.754 364.45 21.213 C 364.148 20.661 363.731 20.234 363.2 19.931 C 362.669 19.619 362.086 19.463 361.45 19.463 C 360.804 19.463 360.216 19.619 359.685 19.931 C 359.164 20.234 358.747 20.661 358.435 21.213 C 358.132 21.754 357.981 22.374 357.981 23.072 C 357.981 23.76 358.132 24.379 358.435 24.931 C 358.747 25.473 359.164 25.9 359.685 26.213 C 360.216 26.515 360.804 26.666 361.45 26.666 Z M 368.07 18.291 L 371.117 18.291 C 372.107 18.291 372.966 18.494 373.695 18.9 C 374.435 19.296 375.003 19.859 375.398 20.588 C 375.794 21.306 375.992 22.135 375.992 23.072 C 375.992 23.999 375.794 24.827 375.398 25.556 C 375.003 26.275 374.435 26.838 373.695 27.244 C 372.966 27.64 372.107 27.838 371.117 27.838 L 368.07 27.838 L 368.07 18.291 Z M 371.086 26.447 C 372.169 26.447 373.008 26.15 373.602 25.556 C 374.206 24.952 374.508 24.124 374.508 23.072 C 374.508 22.01 374.206 21.181 373.602 20.588 C 373.008 19.984 372.169 19.681 371.086 19.681 L 369.539 19.681 L 369.539 26.447 L 371.086 26.447 Z" fill-rule="nonzero"/>
    <path fill="#ffa400" d="M 412.904 1.432 L 537.691 1.432 L 537.691 44.644 L 412.904 44.644 L 412.904 1.432 Z" fill-rule="evenodd"/>
    <path fill="#000000" d="M 455.291 10.291 L 457.025 10.291 L 461.338 17.307 L 461.416 17.307 L 461.338 15.463 L 461.338 10.291 L 462.791 10.291 L 462.791 19.838 L 461.275 19.838 L 456.744 12.463 L 456.666 12.463 L 456.744 14.307 L 456.744 19.838 L 455.291 19.838 L 455.291 10.291 Z M 464.954 10.291 L 470.735 10.291 L 470.735 11.682 L 466.422 11.682 L 466.422 14.369 L 470.313 14.369 L 470.313 15.76 L 466.422 15.76 L 466.422 18.447 L 470.735 18.447 L 470.735 19.838 L 464.954 19.838 L 464.954 10.291 Z M 472.577 10.291 L 478.358 10.291 L 478.358 11.682 L 474.046 11.682 L 474.046 14.369 L 477.937 14.369 L 477.937 15.76 L 474.046 15.76 L 474.046 18.447 L 478.358 18.447 L 478.358 19.838 L 472.577 19.838 L 472.577 10.291 Z M 480.201 10.291 L 483.248 10.291 C 484.237 10.291 485.097 10.494 485.826 10.901 C 486.565 11.296 487.133 11.859 487.529 12.588 C 487.925 13.307 488.123 14.135 488.123 15.072 C 488.123 16 487.925 16.828 487.529 17.557 C 487.133 18.276 486.565 18.838 485.826 19.244 C 485.097 19.64 484.237 19.838 483.248 19.838 L 480.201 19.838 L 480.201 10.291 Z M 483.217 18.447 C 484.3 18.447 485.138 18.151 485.732 17.557 C 486.336 16.953 486.638 16.125 486.638 15.072 C 486.638 14.01 486.336 13.182 485.732 12.588 C 485.138 11.984 484.3 11.682 483.217 11.682 L 481.67 11.682 L 481.67 18.447 L 483.217 18.447 Z M 492.578 20.057 C 491.787 20.057 491.073 19.828 490.438 19.369 C 489.802 18.901 489.365 18.25 489.125 17.416 L 490.5 16.854 C 490.646 17.385 490.901 17.822 491.266 18.166 C 491.63 18.5 492.068 18.666 492.578 18.666 C 493.058 18.666 493.464 18.541 493.797 18.291 C 494.13 18.041 494.297 17.697 494.297 17.26 C 494.297 16.864 494.151 16.536 493.86 16.276 C 493.568 16.015 493.063 15.76 492.344 15.51 L 491.75 15.291 C 491.094 15.062 490.552 14.744 490.125 14.338 C 489.698 13.921 489.485 13.369 489.485 12.682 C 489.485 12.213 489.61 11.781 489.86 11.385 C 490.11 10.979 490.464 10.661 490.922 10.432 C 491.38 10.203 491.901 10.088 492.485 10.088 C 493.308 10.088 493.964 10.291 494.453 10.697 C 494.953 11.093 495.292 11.546 495.469 12.057 L 494.157 12.619 C 494.063 12.296 493.875 12.02 493.594 11.791 C 493.313 11.562 492.943 11.447 492.485 11.447 C 492.058 11.447 491.693 11.562 491.391 11.791 C 491.089 12.02 490.938 12.312 490.938 12.666 C 490.938 13 491.073 13.276 491.344 13.494 C 491.615 13.703 492.032 13.906 492.594 14.104 L 493.203 14.322 C 494.026 14.604 494.657 14.973 495.094 15.432 C 495.542 15.88 495.766 16.484 495.766 17.244 C 495.766 17.859 495.61 18.38 495.297 18.807 C 494.985 19.223 494.578 19.536 494.078 19.744 C 493.589 19.953 493.089 20.057 492.578 20.057 Z" fill-rule="nonzero"/>
    <path fill="#000000" d="M 428.855 26.291 L 430.323 26.291 L 430.323 35.838 L 428.855 35.838 L 428.855 26.291 Z M 432.466 26.291 L 434.435 26.291 L 437.232 33.557 L 437.31 33.557 L 440.107 26.291 L 442.076 26.291 L 442.076 35.838 L 440.638 35.838 L 440.638 30.447 L 440.716 28.744 L 440.638 28.744 L 437.857 35.838 L 436.685 35.838 L 433.904 28.744 L 433.826 28.744 L 433.904 30.447 L 433.904 35.838 L 432.466 35.838 L 432.466 26.291 Z M 444.235 26.291 L 447.516 26.291 C 448.089 26.291 448.61 26.416 449.079 26.666 C 449.558 26.916 449.938 27.265 450.22 27.713 C 450.501 28.151 450.641 28.651 450.641 29.213 C 450.641 29.776 450.501 30.281 450.22 30.729 C 449.938 31.166 449.558 31.51 449.079 31.76 C 448.61 32.01 448.089 32.135 447.516 32.135 L 445.704 32.135 L 445.704 35.838 L 444.235 35.838 L 444.235 26.291 Z M 447.548 30.744 C 448.037 30.744 448.433 30.593 448.735 30.291 C 449.037 29.979 449.188 29.619 449.188 29.213 C 449.188 28.807 449.037 28.453 448.735 28.151 C 448.433 27.838 448.037 27.682 447.548 27.682 L 445.704 27.682 L 445.704 30.744 L 447.548 30.744 Z M 452.139 26.291 L 455.482 26.291 C 456.066 26.291 456.587 26.416 457.045 26.666 C 457.514 26.916 457.884 27.265 458.154 27.713 C 458.425 28.151 458.561 28.651 458.561 29.213 C 458.561 29.848 458.352 30.416 457.936 30.916 C 457.529 31.406 457.014 31.734 456.389 31.901 L 456.373 31.979 L 458.998 35.76 L 458.998 35.838 L 457.311 35.838 L 454.764 32.088 L 453.607 32.088 L 453.607 35.838 L 452.139 35.838 L 452.139 26.291 Z M 455.451 30.744 C 455.91 30.744 456.295 30.598 456.607 30.307 C 456.93 30.015 457.092 29.645 457.092 29.197 C 457.092 28.791 456.946 28.437 456.654 28.135 C 456.363 27.822 455.977 27.666 455.498 27.666 L 453.607 27.666 L 453.607 30.744 L 455.451 30.744 Z M 464.738 36.057 C 463.811 36.057 462.967 35.833 462.206 35.385 C 461.456 34.937 460.863 34.333 460.425 33.572 C 459.998 32.812 459.784 31.979 459.784 31.072 C 459.784 30.156 459.998 29.317 460.425 28.557 C 460.863 27.796 461.456 27.197 462.206 26.76 C 462.967 26.312 463.811 26.088 464.738 26.088 C 465.665 26.088 466.503 26.312 467.253 26.76 C 468.003 27.197 468.592 27.796 469.019 28.557 C 469.446 29.317 469.659 30.156 469.659 31.072 C 469.659 31.979 469.446 32.812 469.019 33.572 C 468.592 34.333 468.003 34.937 467.253 35.385 C 466.503 35.833 465.665 36.057 464.738 36.057 Z M 464.738 34.666 C 465.373 34.666 465.956 34.515 466.488 34.213 C 467.019 33.901 467.436 33.473 467.738 32.932 C 468.05 32.38 468.206 31.76 468.206 31.072 C 468.206 30.375 468.05 29.755 467.738 29.213 C 467.436 28.661 467.019 28.234 466.488 27.932 C 465.956 27.619 465.373 27.463 464.738 27.463 C 464.092 27.463 463.503 27.619 462.972 27.932 C 462.451 28.234 462.034 28.661 461.722 29.213 C 461.42 29.755 461.269 30.375 461.269 31.072 C 461.269 31.76 461.42 32.38 461.722 32.932 C 462.034 33.473 462.451 33.901 462.972 34.213 C 463.503 34.515 464.092 34.666 464.738 34.666 Z M 470.067 26.291 L 471.661 26.291 L 473.817 32.635 L 474.161 33.713 L 474.239 33.713 L 474.598 32.635 L 476.848 26.291 L 478.442 26.291 L 474.973 35.838 L 473.458 35.838 L 470.067 26.291 Z M 479.714 26.291 L 485.496 26.291 L 485.496 27.682 L 481.183 27.682 L 481.183 30.369 L 485.074 30.369 L 485.074 31.76 L 481.183 31.76 L 481.183 34.447 L 485.496 34.447 L 485.496 35.838 L 479.714 35.838 L 479.714 26.291 Z M 487.338 26.291 L 489.307 26.291 L 492.104 33.557 L 492.182 33.557 L 494.979 26.291 L 496.947 26.291 L 496.947 35.838 L 495.51 35.838 L 495.51 30.447 L 495.588 28.744 L 495.51 28.744 L 492.729 35.838 L 491.557 35.838 L 488.776 28.744 L 488.697 28.744 L 488.776 30.447 L 488.776 35.838 L 487.338 35.838 L 487.338 26.291 Z M 499.107 26.291 L 504.888 26.291 L 504.888 27.682 L 500.575 27.682 L 500.575 30.369 L 504.466 30.369 L 504.466 31.76 L 500.575 31.76 L 500.575 34.447 L 504.888 34.447 L 504.888 35.838 L 499.107 35.838 L 499.107 26.291 Z M 506.73 26.291 L 508.465 26.291 L 512.777 33.307 L 512.855 33.307 L 512.777 31.463 L 512.777 26.291 L 514.23 26.291 L 514.23 35.838 L 512.715 35.838 L 508.183 28.463 L 508.105 28.463 L 508.183 30.307 L 508.183 35.838 L 506.73 35.838 L 506.73 26.291 Z M 518.346 27.682 L 515.659 27.682 L 515.659 26.291 L 522.471 26.291 L 522.471 27.682 L 519.799 27.682 L 519.799 35.838 L 518.346 35.838 L 518.346 27.682 Z" fill-rule="nonzero"/>
    <path fill="#ff4e42" d="M 537.729 1.433 L 652.942 1.433 L 652.942 44.645 L 537.729 44.645 L 537.729 1.433 Z" fill-rule="evenodd"/>
    <path fill="#000000" d="M 577.434 18.292 L 580.716 18.292 C 581.288 18.292 581.809 18.417 582.278 18.667 C 582.757 18.917 583.137 19.266 583.419 19.714 C 583.7 20.151 583.841 20.651 583.841 21.214 C 583.841 21.776 583.7 22.282 583.419 22.73 C 583.137 23.167 582.757 23.511 582.278 23.761 C 581.809 24.011 581.288 24.136 580.716 24.136 L 578.903 24.136 L 578.903 27.839 L 577.434 27.839 L 577.434 18.292 Z M 580.747 22.745 C 581.236 22.745 581.632 22.594 581.934 22.292 C 582.236 21.98 582.387 21.62 582.387 21.214 C 582.387 20.808 582.236 20.454 581.934 20.151 C 581.632 19.839 581.236 19.683 580.747 19.683 L 578.903 19.683 L 578.903 22.745 L 580.747 22.745 Z M 589.687 28.058 C 588.759 28.058 587.916 27.834 587.155 27.386 C 586.405 26.938 585.812 26.334 585.374 25.573 C 584.947 24.813 584.733 23.98 584.733 23.073 C 584.733 22.157 584.947 21.318 585.374 20.558 C 585.812 19.797 586.405 19.198 587.155 18.761 C 587.916 18.313 588.759 18.089 589.687 18.089 C 590.614 18.089 591.452 18.313 592.202 18.761 C 592.952 19.198 593.541 19.797 593.968 20.558 C 594.395 21.318 594.608 22.157 594.608 23.073 C 594.608 23.98 594.395 24.813 593.968 25.573 C 593.541 26.334 592.952 26.938 592.202 27.386 C 591.452 27.834 590.614 28.058 589.687 28.058 Z M 589.687 26.667 C 590.322 26.667 590.905 26.516 591.437 26.214 C 591.968 25.901 592.384 25.474 592.687 24.933 C 592.999 24.381 593.155 23.761 593.155 23.073 C 593.155 22.375 592.999 21.756 592.687 21.214 C 592.384 20.662 591.968 20.235 591.437 19.933 C 590.905 19.62 590.322 19.464 589.687 19.464 C 589.041 19.464 588.452 19.62 587.921 19.933 C 587.4 20.235 586.983 20.662 586.671 21.214 C 586.369 21.756 586.218 22.375 586.218 23.073 C 586.218 23.761 586.369 24.381 586.671 24.933 C 586.983 25.474 587.4 25.901 587.921 26.214 C 588.452 26.516 589.041 26.667 589.687 26.667 Z M 600.642 28.058 C 599.715 28.058 598.871 27.834 598.111 27.386 C 597.361 26.938 596.767 26.334 596.33 25.573 C 595.903 24.813 595.689 23.98 595.689 23.073 C 595.689 22.157 595.903 21.318 596.33 20.558 C 596.767 19.797 597.361 19.198 598.111 18.761 C 598.871 18.313 599.715 18.089 600.642 18.089 C 601.569 18.089 602.408 18.313 603.158 18.761 C 603.908 19.198 604.496 19.797 604.923 20.558 C 605.35 21.318 605.564 22.157 605.564 23.073 C 605.564 23.98 605.35 24.813 604.923 25.573 C 604.496 26.334 603.908 26.938 603.158 27.386 C 602.408 27.834 601.569 28.058 600.642 28.058 Z M 600.642 26.667 C 601.278 26.667 601.861 26.516 602.392 26.214 C 602.923 25.901 603.34 25.474 603.642 24.933 C 603.955 24.381 604.111 23.761 604.111 23.073 C 604.111 22.375 603.955 21.756 603.642 21.214 C 603.34 20.662 602.923 20.235 602.392 19.933 C 601.861 19.62 601.278 19.464 600.642 19.464 C 599.996 19.464 599.408 19.62 598.877 19.933 C 598.356 20.235 597.939 20.662 597.627 21.214 C 597.324 21.756 597.173 22.375 597.173 23.073 C 597.173 23.761 597.324 24.381 597.627 24.933 C 597.939 25.474 598.356 25.901 598.877 26.214 C 599.408 26.516 599.996 26.667 600.642 26.667 Z M 607.262 18.292 L 610.606 18.292 C 611.189 18.292 611.71 18.417 612.169 18.667 C 612.637 18.917 613.007 19.266 613.278 19.714 C 613.549 20.151 613.684 20.651 613.684 21.214 C 613.684 21.849 613.476 22.417 613.059 22.917 C 612.653 23.407 612.137 23.735 611.512 23.901 L 611.497 23.98 L 614.122 27.761 L 614.122 27.839 L 612.434 27.839 L 609.887 24.089 L 608.731 24.089 L 608.731 27.839 L 607.262 27.839 L 607.262 18.292 Z M 610.575 22.745 C 611.033 22.745 611.419 22.599 611.731 22.308 C 612.054 22.016 612.216 21.646 612.216 21.198 C 612.216 20.792 612.07 20.438 611.778 20.136 C 611.486 19.823 611.101 19.667 610.622 19.667 L 608.731 19.667 L 608.731 22.745 L 610.575 22.745 Z" fill-rule="nonzero"/>
    <path fill="#000000" fill-opacity="0.0" d="M 489.704 68.631 L 585.704 68.631 L 585.704 97.419 L 489.704 97.419 L 489.704 68.631 Z" fill-rule="evenodd"/>
    <path fill="#434343" d="M 514.632 86.79 L 509.053 86.79 L 509.053 85.337 L 514.475 77.306 L 516.491 77.306 L 516.491 85.056 L 517.991 85.056 L 517.991 86.79 L 516.491 86.79 L 516.491 89.165 L 514.632 89.165 L 514.632 86.79 Z M 514.632 85.056 L 514.632 80.071 L 514.522 80.071 L 511.147 85.056 L 514.632 85.056 Z M 521.091 89.274 C 520.726 89.274 520.414 89.149 520.153 88.899 C 519.903 88.639 519.778 88.327 519.778 87.962 C 519.778 87.608 519.903 87.306 520.153 87.056 C 520.414 86.795 520.726 86.665 521.091 86.665 C 521.466 86.665 521.773 86.79 522.013 87.04 C 522.263 87.29 522.388 87.597 522.388 87.962 C 522.388 88.327 522.263 88.639 522.013 88.899 C 521.773 89.149 521.466 89.274 521.091 89.274 Z M 529.068 89.446 C 528.099 89.446 527.245 89.176 526.506 88.634 C 525.776 88.082 525.209 87.337 524.802 86.399 C 524.407 85.462 524.209 84.41 524.209 83.243 C 524.209 82.077 524.407 81.024 524.802 80.087 C 525.209 79.139 525.776 78.394 526.506 77.853 C 527.245 77.311 528.099 77.04 529.068 77.04 C 530.037 77.04 530.891 77.311 531.631 77.853 C 532.37 78.394 532.938 79.139 533.334 80.087 C 533.73 81.024 533.927 82.077 533.927 83.243 C 533.927 84.41 533.73 85.462 533.334 86.399 C 532.938 87.337 532.37 88.082 531.631 88.634 C 530.891 89.176 530.037 89.446 529.068 89.446 Z M 529.068 87.681 C 529.683 87.681 530.214 87.488 530.662 87.103 C 531.11 86.707 531.454 86.176 531.693 85.509 C 531.933 84.842 532.052 84.087 532.052 83.243 C 532.052 82.399 531.933 81.639 531.693 80.962 C 531.454 80.285 531.11 79.759 530.662 79.384 C 530.214 78.998 529.683 78.806 529.068 78.806 C 528.464 78.806 527.938 78.998 527.49 79.384 C 527.052 79.759 526.714 80.285 526.474 80.962 C 526.235 81.639 526.115 82.399 526.115 83.243 C 526.115 84.087 526.235 84.842 526.474 85.509 C 526.714 86.176 527.052 86.707 527.49 87.103 C 527.938 87.488 528.464 87.681 529.068 87.681 Z M 534.801 89.165 Z M 543.151 89.446 C 542.151 89.446 541.323 89.228 540.667 88.79 C 540.011 88.342 539.552 87.769 539.292 87.071 L 540.964 86.337 C 541.172 86.816 541.469 87.181 541.855 87.431 C 542.24 87.67 542.672 87.79 543.151 87.79 C 543.651 87.79 544.068 87.702 544.401 87.524 C 544.735 87.347 544.901 87.082 544.901 86.728 C 544.901 86.405 544.761 86.149 544.48 85.962 C 544.198 85.764 543.756 85.597 543.151 85.462 L 542.089 85.212 C 541.391 85.045 540.808 84.743 540.339 84.306 C 539.881 83.858 539.651 83.301 539.651 82.634 C 539.651 82.123 539.802 81.676 540.105 81.29 C 540.417 80.894 540.828 80.592 541.339 80.384 C 541.86 80.165 542.422 80.056 543.026 80.056 C 543.86 80.056 544.584 80.217 545.198 80.54 C 545.823 80.863 546.276 81.337 546.558 81.962 L 544.933 82.681 C 544.578 81.983 543.948 81.634 543.042 81.634 C 542.605 81.634 542.24 81.728 541.948 81.915 C 541.657 82.092 541.511 82.321 541.511 82.603 C 541.511 83.123 541.959 83.498 542.855 83.728 L 544.136 84.04 C 545.011 84.259 545.667 84.587 546.105 85.024 C 546.552 85.462 546.776 86.004 546.776 86.649 C 546.776 87.202 546.615 87.691 546.292 88.118 C 545.98 88.535 545.542 88.863 544.98 89.103 C 544.427 89.332 543.818 89.446 543.151 89.446 Z M 552.524 89.446 C 551.67 89.446 550.899 89.243 550.211 88.837 C 549.524 88.431 548.987 87.873 548.602 87.165 C 548.217 86.457 548.024 85.655 548.024 84.759 C 548.024 83.915 548.211 83.134 548.586 82.415 C 548.961 81.696 549.482 81.123 550.149 80.696 C 550.826 80.269 551.586 80.056 552.43 80.056 C 553.316 80.056 554.081 80.248 554.727 80.634 C 555.373 81.019 555.868 81.556 556.211 82.243 C 556.555 82.92 556.727 83.691 556.727 84.556 C 556.727 84.785 556.711 84.983 556.68 85.149 L 549.852 85.149 C 549.935 85.993 550.237 86.644 550.758 87.103 C 551.279 87.551 551.889 87.774 552.586 87.774 C 553.149 87.774 553.633 87.644 554.04 87.384 C 554.446 87.123 554.769 86.78 555.008 86.353 L 556.555 87.103 C 556.149 87.832 555.607 88.405 554.93 88.821 C 554.264 89.238 553.461 89.446 552.524 89.446 Z M 554.868 83.743 C 554.847 83.42 554.743 83.097 554.555 82.774 C 554.368 82.452 554.097 82.186 553.743 81.978 C 553.399 81.759 552.967 81.649 552.446 81.649 C 551.821 81.649 551.29 81.842 550.852 82.228 C 550.425 82.603 550.128 83.108 549.961 83.743 L 554.868 83.743 Z M 562.637 89.446 C 561.751 89.446 560.96 89.243 560.262 88.837 C 559.574 88.431 559.038 87.873 558.652 87.165 C 558.267 86.457 558.074 85.649 558.074 84.743 C 558.074 83.847 558.267 83.045 558.652 82.337 C 559.038 81.618 559.574 81.061 560.262 80.665 C 560.96 80.259 561.751 80.056 562.637 80.056 C 563.606 80.056 564.423 80.274 565.09 80.712 C 565.767 81.139 566.257 81.733 566.559 82.493 L 564.871 83.181 C 564.454 82.233 563.694 81.759 562.59 81.759 C 562.111 81.759 561.663 81.884 561.246 82.134 C 560.84 82.384 560.517 82.738 560.277 83.196 C 560.048 83.644 559.934 84.16 559.934 84.743 C 559.934 85.337 560.048 85.858 560.277 86.306 C 560.517 86.754 560.84 87.103 561.246 87.353 C 561.663 87.603 562.111 87.728 562.59 87.728 C 563.152 87.728 563.632 87.603 564.027 87.353 C 564.423 87.103 564.731 86.743 564.949 86.274 L 566.637 86.993 C 566.283 87.743 565.767 88.342 565.09 88.79 C 564.413 89.228 563.595 89.446 562.637 89.446 Z" fill-rule="nonzero"/>
    <path fill="#000000" fill-opacity="0.0" d="M 364.904 68.631 L 460.904 68.631 L 460.904 97.419 L 364.904 97.419 L 364.904 68.631 Z" fill-rule="evenodd"/>
    <path fill="#434343" d="M 385.635 87.399 C 387.978 85.066 389.421 83.597 389.963 82.993 C 390.473 82.462 390.822 82.03 391.01 81.696 C 391.197 81.363 391.291 80.972 391.291 80.524 C 391.291 80.056 391.114 79.655 390.76 79.321 C 390.405 78.978 389.926 78.806 389.322 78.806 C 388.77 78.806 388.322 78.967 387.978 79.29 C 387.645 79.603 387.416 79.972 387.291 80.399 L 385.603 79.696 C 385.718 79.29 385.931 78.884 386.244 78.478 C 386.567 78.071 386.994 77.733 387.525 77.462 C 388.056 77.181 388.671 77.04 389.369 77.04 C 390.119 77.04 390.78 77.196 391.353 77.509 C 391.937 77.821 392.385 78.238 392.697 78.759 C 393.02 79.269 393.181 79.837 393.181 80.462 C 393.181 81.712 392.551 82.967 391.291 84.228 C 390.78 84.738 390.208 85.311 389.572 85.946 C 388.926 86.582 388.437 87.071 388.103 87.415 L 388.119 87.462 L 393.322 87.462 L 393.322 89.165 L 385.635 89.165 L 385.635 87.399 Z M 396.447 89.274 C 396.082 89.274 395.77 89.149 395.509 88.899 C 395.259 88.639 395.134 88.327 395.134 87.962 C 395.134 87.608 395.259 87.306 395.509 87.056 C 395.77 86.795 396.082 86.665 396.447 86.665 C 396.822 86.665 397.129 86.79 397.368 87.04 C 397.618 87.29 397.743 87.597 397.743 87.962 C 397.743 88.327 397.618 88.639 397.368 88.899 C 397.129 89.149 396.822 89.274 396.447 89.274 Z M 403.596 89.446 C 403.002 89.446 402.424 89.327 401.862 89.087 C 401.299 88.847 400.809 88.488 400.393 88.009 C 399.976 87.53 399.679 86.941 399.502 86.243 L 401.174 85.571 C 401.341 86.228 401.627 86.748 402.033 87.134 C 402.45 87.509 402.966 87.696 403.58 87.696 C 404.237 87.696 404.778 87.488 405.205 87.071 C 405.643 86.644 405.862 86.103 405.862 85.446 C 405.862 84.78 405.648 84.233 405.221 83.806 C 404.804 83.368 404.263 83.149 403.596 83.149 C 403.211 83.149 402.851 83.233 402.518 83.399 C 402.195 83.566 401.929 83.795 401.721 84.087 L 399.877 83.274 L 400.596 77.306 L 407.002 77.306 L 407.002 79.009 L 402.127 79.009 L 401.69 82.196 L 401.783 82.212 C 402.408 81.722 403.132 81.478 403.955 81.478 C 404.622 81.478 405.242 81.644 405.815 81.978 C 406.398 82.311 406.862 82.78 407.205 83.384 C 407.559 83.978 407.737 84.655 407.737 85.415 C 407.737 86.186 407.554 86.879 407.19 87.493 C 406.836 88.097 406.341 88.577 405.705 88.931 C 405.08 89.274 404.377 89.446 403.596 89.446 Z M 408.667 89.165 Z M 417.017 89.446 C 416.017 89.446 415.189 89.228 414.533 88.79 C 413.877 88.342 413.418 87.769 413.158 87.071 L 414.83 86.337 C 415.038 86.816 415.335 87.181 415.72 87.431 C 416.106 87.67 416.538 87.79 417.017 87.79 C 417.517 87.79 417.934 87.702 418.267 87.524 C 418.6 87.347 418.767 87.082 418.767 86.728 C 418.767 86.405 418.627 86.149 418.345 85.962 C 418.064 85.764 417.621 85.597 417.017 85.462 L 415.955 85.212 C 415.257 85.045 414.673 84.743 414.205 84.306 C 413.746 83.858 413.517 83.301 413.517 82.634 C 413.517 82.123 413.668 81.676 413.97 81.29 C 414.283 80.894 414.694 80.592 415.205 80.384 C 415.725 80.165 416.288 80.056 416.892 80.056 C 417.725 80.056 418.449 80.217 419.064 80.54 C 419.689 80.863 420.142 81.337 420.423 81.962 L 418.798 82.681 C 418.444 81.983 417.814 81.634 416.908 81.634 C 416.47 81.634 416.106 81.728 415.814 81.915 C 415.522 82.092 415.377 82.321 415.377 82.603 C 415.377 83.123 415.824 83.498 416.72 83.728 L 418.002 84.04 C 418.877 84.259 419.533 84.587 419.97 85.024 C 420.418 85.462 420.642 86.004 420.642 86.649 C 420.642 87.202 420.481 87.691 420.158 88.118 C 419.845 88.535 419.408 88.863 418.845 89.103 C 418.293 89.332 417.684 89.446 417.017 89.446 Z M 426.39 89.446 C 425.536 89.446 424.765 89.243 424.077 88.837 C 423.39 88.431 422.853 87.873 422.468 87.165 C 422.082 86.457 421.89 85.655 421.89 84.759 C 421.89 83.915 422.077 83.134 422.452 82.415 C 422.827 81.696 423.348 81.123 424.015 80.696 C 424.692 80.269 425.452 80.056 426.296 80.056 C 427.181 80.056 427.947 80.248 428.593 80.634 C 429.239 81.019 429.733 81.556 430.077 82.243 C 430.421 82.92 430.593 83.691 430.593 84.556 C 430.593 84.785 430.577 84.983 430.546 85.149 L 423.718 85.149 C 423.801 85.993 424.103 86.644 424.624 87.103 C 425.145 87.551 425.754 87.774 426.452 87.774 C 427.015 87.774 427.499 87.644 427.905 87.384 C 428.312 87.123 428.635 86.78 428.874 86.353 L 430.421 87.103 C 430.015 87.832 429.473 88.405 428.796 88.821 C 428.129 89.238 427.327 89.446 426.39 89.446 Z M 428.733 83.743 C 428.713 83.42 428.608 83.097 428.421 82.774 C 428.233 82.452 427.963 82.186 427.608 81.978 C 427.265 81.759 426.832 81.649 426.312 81.649 C 425.687 81.649 425.155 81.842 424.718 82.228 C 424.291 82.603 423.994 83.108 423.827 83.743 L 428.733 83.743 Z M 436.502 89.446 C 435.617 89.446 434.825 89.243 434.127 88.837 C 433.44 88.431 432.904 87.873 432.518 87.165 C 432.133 86.457 431.94 85.649 431.94 84.743 C 431.94 83.847 432.133 83.045 432.518 82.337 C 432.904 81.618 433.44 81.061 434.127 80.665 C 434.825 80.259 435.617 80.056 436.502 80.056 C 437.471 80.056 438.289 80.274 438.956 80.712 C 439.633 81.139 440.122 81.733 440.424 82.493 L 438.737 83.181 C 438.32 82.233 437.56 81.759 436.456 81.759 C 435.976 81.759 435.529 81.884 435.112 82.134 C 434.706 82.384 434.383 82.738 434.143 83.196 C 433.914 83.644 433.799 84.16 433.799 84.743 C 433.799 85.337 433.914 85.858 434.143 86.306 C 434.383 86.754 434.706 87.103 435.112 87.353 C 435.529 87.603 435.976 87.728 436.456 87.728 C 437.018 87.728 437.497 87.603 437.893 87.353 C 438.289 87.103 438.596 86.743 438.815 86.274 L 440.502 86.993 C 440.148 87.743 439.633 88.342 438.956 88.79 C 438.279 89.228 437.461 89.446 436.502 89.446 Z" fill-rule="nonzero"/>
    <path fill="#000000" fill-opacity="0.0" d="M 412.589 69.579 L 412.589 40.791" fill-rule="evenodd"/>
    <path stroke="#434343" stroke-width="2.0" stroke-linejoin="round" stroke-linecap="butt" d="M 412.589 69.579 L 412.589 48.371" fill-rule="evenodd"/>
    <path fill="#434343" stroke="#434343" stroke-width="2.0" stroke-linecap="butt" d="M 412.589 41.791 C 414.406 41.791 415.879 43.264 415.879 45.081 C 415.879 46.898 414.406 48.371 412.589 48.371 C 410.772 48.371 409.299 46.898 409.299 45.081 C 409.299 43.264 410.772 41.791 412.589 41.791 Z" fill-rule="nonzero"/>
    <path fill="#000000" fill-opacity="0.0" d="M -33.496 73.431 L 235.291 73.431 L 235.291 111.825 L -33.496 111.825 L -33.496 73.431 Z" fill-rule="evenodd"/>
    <path fill="#666666" d="M 5.621 69.842 L 7.433 69.842 L 7.433 83.373 L 14.105 83.373 L 14.105 85.108 L 5.621 85.108 L 5.621 69.842 Z M 19.586 85.452 C 18.795 85.452 18.086 85.295 17.461 84.983 C 16.836 84.67 16.352 84.243 16.008 83.702 C 15.665 83.15 15.493 82.525 15.493 81.827 C 15.493 80.67 15.925 79.769 16.79 79.123 C 17.665 78.478 18.763 78.155 20.086 78.155 C 20.743 78.155 21.352 78.228 21.915 78.373 C 22.477 78.509 22.904 78.67 23.196 78.858 L 23.196 78.202 C 23.196 77.389 22.909 76.738 22.336 76.248 C 21.774 75.759 21.06 75.514 20.196 75.514 C 19.592 75.514 19.029 75.644 18.508 75.905 C 17.998 76.165 17.592 76.53 17.29 76.998 L 15.93 75.983 C 16.357 75.327 16.946 74.816 17.696 74.452 C 18.446 74.077 19.279 73.889 20.196 73.889 C 21.675 73.889 22.831 74.28 23.665 75.061 C 24.508 75.832 24.93 76.884 24.93 78.217 L 24.93 85.108 L 23.196 85.108 L 23.196 83.545 L 23.118 83.545 C 22.805 84.077 22.336 84.53 21.711 84.905 C 21.086 85.269 20.378 85.452 19.586 85.452 Z M 19.758 83.842 C 20.373 83.842 20.941 83.686 21.461 83.373 C 21.993 83.061 22.415 82.644 22.727 82.123 C 23.04 81.592 23.196 81.014 23.196 80.389 C 22.852 80.16 22.43 79.978 21.93 79.842 C 21.441 79.696 20.92 79.623 20.368 79.623 C 19.368 79.623 18.612 79.832 18.102 80.248 C 17.602 80.655 17.352 81.186 17.352 81.842 C 17.352 82.436 17.581 82.92 18.04 83.295 C 18.498 83.66 19.071 83.842 19.758 83.842 Z M 27.443 74.233 L 29.177 74.233 L 29.177 75.983 L 29.255 75.983 C 29.464 75.379 29.875 74.884 30.49 74.498 C 31.104 74.103 31.745 73.905 32.412 73.905 C 32.912 73.905 33.339 73.978 33.693 74.123 L 33.693 76.092 C 33.235 75.863 32.724 75.748 32.162 75.748 C 31.63 75.748 31.146 75.9 30.709 76.202 C 30.271 76.493 29.917 76.894 29.646 77.405 C 29.386 77.905 29.255 78.446 29.255 79.03 L 29.255 85.108 L 27.443 85.108 L 27.443 74.233 Z M 39.689 90.061 C 38.408 90.061 37.35 89.759 36.517 89.155 C 35.684 88.561 35.126 87.842 34.845 86.998 L 36.501 86.295 C 36.731 86.931 37.126 87.441 37.689 87.827 C 38.251 88.222 38.918 88.42 39.689 88.42 C 40.814 88.42 41.684 88.092 42.298 87.436 C 42.913 86.78 43.22 85.853 43.22 84.655 L 43.22 83.452 L 43.142 83.452 C 42.788 84.004 42.288 84.457 41.642 84.811 C 40.996 85.155 40.257 85.327 39.423 85.327 C 38.486 85.327 37.632 85.087 36.861 84.608 C 36.09 84.118 35.475 83.441 35.017 82.577 C 34.559 81.702 34.33 80.712 34.33 79.608 C 34.33 78.514 34.559 77.53 35.017 76.655 C 35.475 75.78 36.09 75.103 36.861 74.623 C 37.632 74.134 38.486 73.889 39.423 73.889 C 40.257 73.889 40.996 74.066 41.642 74.42 C 42.288 74.764 42.788 75.217 43.142 75.78 L 43.22 75.78 L 43.22 74.233 L 44.955 74.233 L 44.955 84.686 C 44.955 86.436 44.47 87.769 43.501 88.686 C 42.533 89.603 41.262 90.061 39.689 90.061 Z M 39.689 83.686 C 40.345 83.686 40.939 83.525 41.47 83.202 C 42.001 82.868 42.423 82.394 42.736 81.78 C 43.059 81.165 43.22 80.441 43.22 79.608 C 43.22 78.754 43.059 78.025 42.736 77.42 C 42.423 76.806 42.001 76.337 41.47 76.014 C 40.939 75.691 40.345 75.53 39.689 75.53 C 39.033 75.53 38.434 75.696 37.892 76.03 C 37.35 76.353 36.918 76.821 36.595 77.436 C 36.283 78.04 36.126 78.764 36.126 79.608 C 36.126 80.441 36.283 81.17 36.595 81.795 C 36.918 82.41 37.35 82.879 37.892 83.202 C 38.434 83.525 39.033 83.686 39.689 83.686 Z M 52.378 85.452 C 51.336 85.452 50.404 85.202 49.581 84.702 C 48.758 84.202 48.112 83.514 47.643 82.639 C 47.185 81.764 46.956 80.78 46.956 79.686 C 46.956 78.655 47.169 77.696 47.596 76.811 C 48.034 75.915 48.654 75.207 49.456 74.686 C 50.268 74.155 51.19 73.889 52.221 73.889 C 53.294 73.889 54.221 74.129 55.003 74.608 C 55.784 75.077 56.383 75.733 56.8 76.577 C 57.216 77.42 57.425 78.379 57.425 79.452 C 57.425 79.629 57.414 79.816 57.393 80.014 L 48.768 80.014 C 48.81 80.837 49.008 81.535 49.362 82.108 C 49.727 82.67 50.18 83.097 50.721 83.389 C 51.274 83.67 51.846 83.811 52.44 83.811 C 53.857 83.811 54.93 83.155 55.659 81.842 L 57.19 82.592 C 56.742 83.457 56.112 84.15 55.3 84.67 C 54.487 85.191 53.513 85.452 52.378 85.452 Z M 55.518 78.514 C 55.487 78.066 55.357 77.613 55.128 77.155 C 54.899 76.696 54.539 76.311 54.05 75.998 C 53.57 75.686 52.961 75.53 52.221 75.53 C 51.367 75.53 50.643 75.806 50.05 76.358 C 49.456 76.9 49.065 77.618 48.878 78.514 L 55.518 78.514 Z M 63.445 85.452 C 62.279 85.452 61.305 85.181 60.523 84.639 C 59.742 84.087 59.185 83.384 58.852 82.53 L 60.477 81.795 C 60.747 82.452 61.148 82.957 61.68 83.311 C 62.221 83.665 62.81 83.842 63.445 83.842 C 64.122 83.842 64.7 83.707 65.18 83.436 C 65.669 83.155 65.914 82.759 65.914 82.248 C 65.914 81.79 65.721 81.426 65.336 81.155 C 64.961 80.873 64.357 80.634 63.523 80.436 L 62.211 80.092 C 61.346 79.884 60.633 79.525 60.07 79.014 C 59.518 78.493 59.242 77.832 59.242 77.03 C 59.242 76.405 59.43 75.853 59.805 75.373 C 60.18 74.894 60.68 74.53 61.305 74.28 C 61.94 74.019 62.617 73.889 63.336 73.889 C 64.294 73.889 65.143 74.097 65.883 74.514 C 66.633 74.92 67.164 75.493 67.477 76.233 L 65.898 76.967 C 65.419 75.998 64.56 75.514 63.32 75.514 C 62.716 75.514 62.19 75.655 61.742 75.936 C 61.294 76.207 61.07 76.556 61.07 76.983 C 61.07 77.379 61.227 77.702 61.539 77.952 C 61.862 78.202 62.336 78.405 62.961 78.561 L 64.539 78.967 C 65.602 79.238 66.404 79.639 66.945 80.17 C 67.487 80.702 67.758 81.353 67.758 82.123 C 67.758 82.79 67.565 83.379 67.18 83.889 C 66.794 84.389 66.273 84.775 65.617 85.045 C 64.961 85.316 64.237 85.452 63.445 85.452 Z M 73.817 85.28 C 73.37 85.28 72.958 85.212 72.583 85.077 C 72.208 84.931 71.89 84.733 71.63 84.483 C 71.067 83.952 70.786 83.207 70.786 82.248 L 70.786 75.873 L 68.88 75.873 L 68.88 74.233 L 70.786 74.233 L 70.786 71.155 L 72.599 71.155 L 72.599 74.233 L 75.255 74.233 L 75.255 75.873 L 72.599 75.873 L 72.599 81.795 C 72.599 82.4 72.713 82.842 72.942 83.123 C 73.213 83.436 73.604 83.592 74.114 83.592 C 74.552 83.592 74.948 83.472 75.302 83.233 L 75.302 84.998 C 75.094 85.103 74.875 85.176 74.646 85.217 C 74.427 85.259 74.151 85.28 73.817 85.28 Z M 76.092 85.108 Z M 89.489 85.452 C 88.01 85.452 86.666 85.103 85.458 84.405 C 84.249 83.707 83.296 82.754 82.598 81.545 C 81.911 80.327 81.567 78.967 81.567 77.467 C 81.567 75.978 81.911 74.629 82.598 73.42 C 83.296 72.202 84.249 71.243 85.458 70.545 C 86.666 69.847 88.01 69.498 89.489 69.498 C 90.624 69.498 91.666 69.712 92.614 70.139 C 93.562 70.566 94.379 71.186 95.067 71.998 L 93.77 73.248 C 93.187 72.551 92.551 72.04 91.864 71.717 C 91.176 71.384 90.385 71.217 89.489 71.217 C 88.374 71.217 87.353 71.478 86.426 71.998 C 85.51 72.519 84.775 73.254 84.223 74.202 C 83.682 75.15 83.411 76.238 83.411 77.467 C 83.411 78.707 83.682 79.801 84.223 80.748 C 84.775 81.696 85.51 82.431 86.426 82.952 C 87.353 83.462 88.374 83.717 89.489 83.717 C 91.333 83.717 92.905 82.957 94.208 81.436 L 95.52 82.717 C 94.822 83.561 93.952 84.228 92.911 84.717 C 91.869 85.207 90.728 85.452 89.489 85.452 Z M 102.351 85.452 C 101.278 85.452 100.314 85.196 99.46 84.686 C 98.616 84.176 97.955 83.478 97.476 82.592 C 96.997 81.707 96.757 80.733 96.757 79.67 C 96.757 78.608 96.997 77.634 97.476 76.748 C 97.955 75.863 98.616 75.165 99.46 74.655 C 100.314 74.144 101.278 73.889 102.351 73.889 C 103.413 73.889 104.372 74.144 105.226 74.655 C 106.08 75.165 106.741 75.863 107.21 76.748 C 107.689 77.634 107.929 78.608 107.929 79.67 C 107.929 80.733 107.689 81.707 107.21 82.592 C 106.741 83.478 106.08 84.176 105.226 84.686 C 104.372 85.196 103.413 85.452 102.351 85.452 Z M 102.351 83.811 C 103.017 83.811 103.637 83.644 104.21 83.311 C 104.783 82.978 105.241 82.498 105.585 81.873 C 105.939 81.238 106.116 80.504 106.116 79.67 C 106.116 78.827 105.939 78.092 105.585 77.467 C 105.241 76.842 104.783 76.363 104.21 76.03 C 103.637 75.696 103.017 75.53 102.351 75.53 C 101.684 75.53 101.059 75.696 100.476 76.03 C 99.892 76.363 99.424 76.842 99.069 77.467 C 98.726 78.092 98.554 78.827 98.554 79.67 C 98.554 80.504 98.726 81.238 99.069 81.873 C 99.424 82.498 99.892 82.978 100.476 83.311 C 101.059 83.644 101.684 83.811 102.351 83.811 Z M 109.833 74.233 L 111.568 74.233 L 111.568 75.827 L 111.646 75.827 C 111.948 75.285 112.422 74.827 113.068 74.452 C 113.724 74.077 114.422 73.889 115.162 73.889 C 116.474 73.889 117.474 74.269 118.162 75.03 C 118.849 75.79 119.193 76.827 119.193 78.139 L 119.193 85.108 L 117.38 85.108 L 117.38 78.405 C 117.38 77.394 117.135 76.665 116.646 76.217 C 116.167 75.759 115.51 75.53 114.677 75.53 C 114.094 75.53 113.568 75.696 113.099 76.03 C 112.641 76.353 112.281 76.78 112.021 77.311 C 111.771 77.842 111.646 78.4 111.646 78.983 L 111.646 85.108 L 109.833 85.108 L 109.833 74.233 Z M 125.453 85.28 C 125.005 85.28 124.593 85.212 124.218 85.077 C 123.843 84.931 123.526 84.733 123.265 84.483 C 122.703 83.952 122.421 83.207 122.421 82.248 L 122.421 75.873 L 120.515 75.873 L 120.515 74.233 L 122.421 74.233 L 122.421 71.155 L 124.234 71.155 L 124.234 74.233 L 126.89 74.233 L 126.89 75.873 L 124.234 75.873 L 124.234 81.795 C 124.234 82.4 124.349 82.842 124.578 83.123 C 124.849 83.436 125.239 83.592 125.75 83.592 C 126.187 83.592 126.583 83.472 126.937 83.233 L 126.937 84.998 C 126.729 85.103 126.51 85.176 126.281 85.217 C 126.062 85.259 125.786 85.28 125.453 85.28 Z M 133.446 85.452 C 132.404 85.452 131.472 85.202 130.649 84.702 C 129.826 84.202 129.18 83.514 128.711 82.639 C 128.253 81.764 128.024 80.78 128.024 79.686 C 128.024 78.655 128.237 77.696 128.664 76.811 C 129.102 75.915 129.722 75.207 130.524 74.686 C 131.336 74.155 132.258 73.889 133.289 73.889 C 134.362 73.889 135.289 74.129 136.071 74.608 C 136.852 75.077 137.451 75.733 137.868 76.577 C 138.284 77.42 138.493 78.379 138.493 79.452 C 138.493 79.629 138.482 79.816 138.461 80.014 L 129.836 80.014 C 129.878 80.837 130.076 81.535 130.43 82.108 C 130.795 82.67 131.248 83.097 131.789 83.389 C 132.342 83.67 132.914 83.811 133.508 83.811 C 134.925 83.811 135.998 83.155 136.727 81.842 L 138.258 82.592 C 137.81 83.457 137.18 84.15 136.368 84.67 C 135.555 85.191 134.581 85.452 133.446 85.452 Z M 136.586 78.514 C 136.555 78.066 136.425 77.613 136.196 77.155 C 135.967 76.696 135.607 76.311 135.118 75.998 C 134.638 75.686 134.029 75.53 133.289 75.53 C 132.435 75.53 131.711 75.806 131.118 76.358 C 130.524 76.9 130.133 77.618 129.946 78.514 L 136.586 78.514 Z M 140.61 74.233 L 142.344 74.233 L 142.344 75.827 L 142.422 75.827 C 142.724 75.285 143.198 74.827 143.844 74.452 C 144.5 74.077 145.198 73.889 145.938 73.889 C 147.25 73.889 148.25 74.269 148.938 75.03 C 149.625 75.79 149.969 76.827 149.969 78.139 L 149.969 85.108 L 148.157 85.108 L 148.157 78.405 C 148.157 77.394 147.912 76.665 147.422 76.217 C 146.943 75.759 146.287 75.53 145.453 75.53 C 144.87 75.53 144.344 75.696 143.875 76.03 C 143.417 76.353 143.058 76.78 142.797 77.311 C 142.547 77.842 142.422 78.4 142.422 78.983 L 142.422 85.108 L 140.61 85.108 L 140.61 74.233 Z M 156.229 85.28 C 155.781 85.28 155.37 85.212 154.995 85.077 C 154.62 84.931 154.302 84.733 154.042 84.483 C 153.479 83.952 153.198 83.207 153.198 82.248 L 153.198 75.873 L 151.292 75.873 L 151.292 74.233 L 153.198 74.233 L 153.198 71.155 L 155.01 71.155 L 155.01 74.233 L 159.948 74.233 L 159.948 73.061 C 159.948 72.373 160.099 71.775 160.401 71.264 C 160.713 70.754 161.135 70.363 161.667 70.092 C 162.198 69.811 162.786 69.67 163.432 69.67 C 164.015 69.67 164.547 69.754 165.026 69.92 L 165.026 71.686 C 164.745 71.571 164.495 71.488 164.276 71.436 C 164.057 71.384 163.792 71.358 163.479 71.358 C 163.01 71.358 162.604 71.525 162.26 71.858 C 161.917 72.191 161.745 72.655 161.745 73.248 L 161.745 74.233 L 164.542 74.233 L 164.542 75.873 L 161.745 75.873 L 161.745 85.108 L 159.948 85.108 L 159.948 75.873 L 155.01 75.873 L 155.01 81.795 C 155.01 82.4 155.125 82.842 155.354 83.123 C 155.625 83.436 156.015 83.592 156.526 83.592 C 156.963 83.592 157.359 83.472 157.713 83.233 L 157.713 84.998 C 157.505 85.103 157.286 85.176 157.057 85.217 C 156.838 85.259 156.562 85.28 156.229 85.28 Z M 170.519 85.452 C 169.207 85.452 168.207 85.066 167.519 84.295 C 166.832 83.525 166.488 82.452 166.488 81.077 L 166.488 74.233 L 168.3 74.233 L 168.3 80.795 C 168.3 81.837 168.535 82.603 169.004 83.092 C 169.472 83.571 170.102 83.811 170.894 83.811 C 171.509 83.811 172.05 83.65 172.519 83.327 C 172.998 82.993 173.368 82.566 173.629 82.045 C 173.899 81.514 174.035 80.957 174.035 80.373 L 174.035 74.233 L 175.847 74.233 L 175.847 85.108 L 174.113 85.108 L 174.113 83.53 L 174.035 83.53 C 173.733 84.071 173.254 84.53 172.597 84.905 C 171.951 85.269 171.259 85.452 170.519 85.452 Z M 178.531 69.842 L 180.344 69.842 L 180.344 85.108 L 178.531 85.108 L 178.531 69.842 Z M 181.688 85.108 Z M 188.339 69.842 L 193.48 69.842 C 194.334 69.842 195.12 70.035 195.839 70.42 C 196.568 70.795 197.151 71.332 197.589 72.03 C 198.026 72.717 198.245 73.493 198.245 74.358 C 198.245 75.222 198.026 76.004 197.589 76.702 C 197.151 77.389 196.568 77.926 195.839 78.311 C 195.12 78.686 194.334 78.873 193.48 78.873 L 190.151 78.873 L 190.151 85.108 L 188.339 85.108 L 188.339 69.842 Z M 193.526 77.155 C 194.089 77.155 194.589 77.019 195.026 76.748 C 195.464 76.478 195.802 76.129 196.042 75.702 C 196.282 75.275 196.401 74.827 196.401 74.358 C 196.401 73.889 196.282 73.441 196.042 73.014 C 195.802 72.587 195.464 72.238 195.026 71.967 C 194.589 71.696 194.089 71.561 193.526 71.561 L 190.151 71.561 L 190.151 77.155 L 193.526 77.155 Z M 203.307 85.452 C 202.515 85.452 201.807 85.295 201.182 84.983 C 200.557 84.67 200.072 84.243 199.729 83.702 C 199.385 83.15 199.213 82.525 199.213 81.827 C 199.213 80.67 199.645 79.769 200.51 79.123 C 201.385 78.478 202.484 78.155 203.807 78.155 C 204.463 78.155 205.072 78.228 205.635 78.373 C 206.197 78.509 206.624 78.67 206.916 78.858 L 206.916 78.202 C 206.916 77.389 206.63 76.738 206.057 76.248 C 205.494 75.759 204.781 75.514 203.916 75.514 C 203.312 75.514 202.749 75.644 202.229 75.905 C 201.718 76.165 201.312 76.53 201.01 76.998 L 199.65 75.983 C 200.078 75.327 200.666 74.816 201.416 74.452 C 202.166 74.077 202.999 73.889 203.916 73.889 C 205.395 73.889 206.551 74.28 207.385 75.061 C 208.229 75.832 208.65 76.884 208.65 78.217 L 208.65 85.108 L 206.916 85.108 L 206.916 83.545 L 206.838 83.545 C 206.525 84.077 206.057 84.53 205.432 84.905 C 204.807 85.269 204.098 85.452 203.307 85.452 Z M 203.479 83.842 C 204.093 83.842 204.661 83.686 205.182 83.373 C 205.713 83.061 206.135 82.644 206.447 82.123 C 206.76 81.592 206.916 81.014 206.916 80.389 C 206.572 80.16 206.15 79.978 205.65 79.842 C 205.161 79.696 204.64 79.623 204.088 79.623 C 203.088 79.623 202.333 79.832 201.822 80.248 C 201.322 80.655 201.072 81.186 201.072 81.842 C 201.072 82.436 201.301 82.92 201.76 83.295 C 202.218 83.66 202.791 83.842 203.479 83.842 Z M 212.226 72.233 C 211.872 72.233 211.564 72.103 211.304 71.842 C 211.054 71.582 210.929 71.275 210.929 70.92 C 210.929 70.556 211.054 70.248 211.304 69.998 C 211.564 69.748 211.872 69.623 212.226 69.623 C 212.601 69.623 212.913 69.748 213.163 69.998 C 213.413 70.248 213.538 70.556 213.538 70.92 C 213.538 71.275 213.413 71.582 213.163 71.842 C 212.913 72.103 212.601 72.233 212.226 72.233 Z M 211.335 74.233 L 213.148 74.233 L 213.148 85.108 L 211.335 85.108 L 211.335 74.233 Z M 215.983 74.233 L 217.718 74.233 L 217.718 75.827 L 217.796 75.827 C 218.098 75.285 218.572 74.827 219.218 74.452 C 219.874 74.077 220.572 73.889 221.312 73.889 C 222.624 73.889 223.624 74.269 224.312 75.03 C 224.999 75.79 225.343 76.827 225.343 78.139 L 225.343 85.108 L 223.53 85.108 L 223.53 78.405 C 223.53 77.394 223.285 76.665 222.796 76.217 C 222.317 75.759 221.66 75.53 220.827 75.53 C 220.244 75.53 219.718 75.696 219.249 76.03 C 218.791 76.353 218.431 76.78 218.171 77.311 C 217.921 77.842 217.796 78.4 217.796 78.983 L 217.796 85.108 L 215.983 85.108 L 215.983 74.233 Z M 231.603 85.28 C 231.155 85.28 230.743 85.212 230.368 85.077 C 229.993 84.931 229.676 84.733 229.415 84.483 C 228.853 83.952 228.571 83.207 228.571 82.248 L 228.571 75.873 L 226.665 75.873 L 226.665 74.233 L 228.571 74.233 L 228.571 71.155 L 230.384 71.155 L 230.384 74.233 L 233.04 74.233 L 233.04 75.873 L 230.384 75.873 L 230.384 81.795 C 230.384 82.4 230.499 82.842 230.728 83.123 C 230.999 83.436 231.389 83.592 231.9 83.592 C 232.337 83.592 232.733 83.472 233.087 83.233 L 233.087 84.998 C 232.879 85.103 232.66 85.176 232.431 85.217 C 232.212 85.259 231.936 85.28 231.603 85.28 Z" fill-rule="nonzero"/>
    <path fill="#000000" fill-opacity="0.0" d="M 537.704 69.459 L 537.704 40.892" fill-rule="evenodd"/>
    <path stroke="#434343" stroke-width="2.0" stroke-linejoin="round" stroke-linecap="butt" d="M 537.704 69.459 L 537.704 48.472" fill-rule="evenodd"/>
    <path fill="#434343" stroke="#434343" stroke-width="2.0" stroke-linecap="butt" d="M 537.704 41.892 C 539.521 41.892 540.994 43.365 540.994 45.182 C 540.994 46.999 539.521 48.472 537.704 48.472 C 535.887 48.472 534.414 46.999 534.414 45.182 C 534.414 43.365 535.887 41.892 537.704 41.892 Z" fill-rule="nonzero"/>
  </g>
</svg>